<?xml version="1.0" encoding="utf-8"?>
<!-- Generator: Adobe Illustrator 14.0.0, SVG Export Plug-In . SVG Version: 6.00 Build 43363)  -->
<!DOCTYPE svg PUBLIC "-//W3C//DTD SVG 1.1//EN" "http://www.w3.org/Graphics/SVG/1.1/DTD/svg11.dtd">
<svg version="1.1" id="Capa_1" xmlns="http://www.w3.org/2000/svg" xmlns:xlink="http://www.w3.org/1999/xlink" x="0px" y="0px"
	 width="125.19px" height="70px" viewBox="0 0 125.19 70" enable-background="new 0 0 125.19 70" xml:space="preserve">
<g>
	<path fill="#E1D5B6" d="M9.13,57.358c0,0,1.148-5.42-3.287-8.784c-4.429-3.364-5.828-6.813-5.828-10.916c0-4.104,0-8.21,0-8.21
		s-0.328-2.709,2.137-2.709c2.378,0,4.142,3.291,4.26,6.327c0.004,0.108,0.004,0.214,0.004,0.321c0,3.119,0,2.876,0,2.876
		s1.069,0.653,1.152-1.969c0.082-2.63,0-26.27,0-26.27s0.165-2.874,3.034-2.874c2.875,0,3.04,3.038,3.04,4.515
		c0,1.479,0,18.222,0,18.222s0.904,0.903,0.904-3.2c0-4.104,0-4.104,0-4.104s-0.655-2.872,2.869-2.872
		c3.535,0,3.123,3.119,3.123,5.252c0,2.135,0,4.516,0,4.516v1.312c0,0,1.069,0.33,1.069-1.642c0-1.968,0-4.35,0-4.35
		s-0.331-1.888,2.79-1.888c3.118,0,2.955,3.367,2.955,3.367v5.169c0,0,1.067,1.395,1.067-1.889c0-3.28,0-2.05,0-2.05
		s0.164-1.889,1.805-1.889c1.641,0,3.694-0.083,3.694,3.938c0,4.022,0,11.654,0,11.654s-0.903,6.486-2.792,9.278
		c-1.887,2.79-1.23,9.356-1.23,9.356L9.13,57.358z"/>
	<path fill="#E1D5B6" d="M13.442,57.461c19.279-12.569,19.039-28.592,18.384-33.732c-0.524-0.117-1.082-0.107-1.603-0.107
		c-1.642,0-1.805,1.889-1.805,1.889c0,0.281,0,0.878,0,2.05c0,3.283-1.067,1.889-1.067,1.889v-5.169c0,0,0.163-3.367-2.955-3.367
		c-3.121,0-2.79,1.888-2.79,1.888s0,2.382,0,4.35c0,1.972-1.069,1.642-1.069,1.642v-1.312c0,0,0-2.381,0-4.516
		c0-2.133,0.412-5.252-3.123-5.252c-3.524,0-2.869,2.872-2.869,2.872s0,0,0,4.104c0,4.104-0.904,3.2-0.904,3.2s0-16.743,0-18.222
		c0-1.477-0.165-4.515-3.04-4.515c-2.869,0-3.034,2.874-3.034,2.874s0.082,23.64,0,26.27c-0.083,2.622-1.152,1.969-1.152,1.969
		c0-0.04,0-0.387,0-2.876c0-0.107,0-0.213-0.004-0.321c-0.119-3.036-1.882-6.327-4.26-6.327c-2.465,0-2.137,2.709-2.137,2.709
		s0,4.105,0,8.21c0,4.103,1.398,7.552,5.828,10.916c4.435,3.364,3.287,8.784,3.287,8.784L13.442,57.461z"/>
	<rect x="4.779" y="56.126" fill="#FFFFFF" width="28.973" height="9.604"/>
	<rect x="2.972" y="60.396" fill="#5D556C" width="32.751" height="9.604"/>
	<g>
		<path fill="#E1D5B6" d="M6.115,11.879c-0.133,0-0.263-0.055-0.359-0.16c-1.458-1.643-2.125-3.32-1.985-4.988
			c0.201-2.368,1.97-3.81,2.047-3.867C6.021,2.697,6.323,2.73,6.487,2.938C6.652,3.142,6.62,3.44,6.413,3.607
			C6.386,3.629,4.878,4.873,4.722,6.821c-0.115,1.392,0.474,2.827,1.752,4.264c0.174,0.197,0.156,0.499-0.042,0.674
			C6.341,11.839,6.226,11.879,6.115,11.879L6.115,11.879z"/>
	</g>
	<g>
		<path fill="#E1D5B6" d="M4.047,14.162c-0.127,0-0.252-0.053-0.347-0.15c-2.316-2.44-3.41-4.977-3.252-7.54
			C0.687,2.654,3.62,0.21,3.744,0.109C3.949-0.059,4.25-0.03,4.418,0.172c0.165,0.207,0.134,0.509-0.07,0.675
			C4.304,0.88,1.608,3.152,1.401,6.543c-0.139,2.283,0.869,4.575,2.991,6.809c0.182,0.195,0.173,0.497-0.018,0.677
			C4.284,14.116,4.165,14.162,4.047,14.162L4.047,14.162z"/>
	</g>
	<g>
		<path fill="#E1D5B6" d="M15.602,11.879c-0.113,0-0.226-0.04-0.317-0.12c-0.196-0.175-0.212-0.477-0.039-0.674
			c1.28-1.439,1.87-2.879,1.753-4.274c-0.167-1.962-1.679-3.191-1.691-3.203c-0.209-0.164-0.243-0.466-0.075-0.67
			c0.162-0.207,0.462-0.24,0.67-0.074c0.074,0.058,1.846,1.499,2.043,3.867c0.144,1.668-0.523,3.346-1.986,4.988
			C15.866,11.824,15.735,11.879,15.602,11.879L15.602,11.879z"/>
	</g>
	<g>
		<path fill="#E1D5B6" d="M17.671,14.162c-0.117,0-0.236-0.046-0.33-0.134c-0.187-0.18-0.197-0.481-0.017-0.677
			c2.127-2.237,3.133-4.53,2.99-6.819c-0.208-3.407-2.918-5.664-2.946-5.686c-0.203-0.166-0.234-0.468-0.066-0.675
			c0.167-0.202,0.47-0.23,0.675-0.062c0.121,0.101,3.055,2.545,3.292,6.362c0.158,2.563-0.935,5.1-3.249,7.54
			C17.923,14.109,17.797,14.162,17.671,14.162L17.671,14.162z"/>
	</g>
	<g>
		<g>
			<path fill="#5D556C" d="M45.589,0.396c0.922,0,1.677,0.263,2.276,0.79s0.897,1.318,0.897,2.372v0.896l-1.83-0.396v-0.5
				c0-0.36-0.132-0.671-0.396-0.938c-0.265-0.264-0.576-0.395-0.935-0.395c-0.278,0-0.503,0.055-0.676,0.167
				c-0.176,0.111-0.314,0.251-0.416,0.427c-0.108,0.174-0.175,0.367-0.209,0.584c-0.037,0.212-0.052,0.432-0.052,0.654
				c0,0.332,0.071,0.677,0.218,1.029c0.144,0.354,0.331,0.702,0.55,1.052c0.223,0.346,0.464,0.684,0.728,1.019
				c0.264,0.33,0.507,0.646,0.73,0.934c0.291,0.39,0.582,0.793,0.871,1.21c0.292,0.415,0.554,0.843,0.78,1.277
				c0.23,0.439,0.417,0.892,0.561,1.364c0.148,0.473,0.221,0.964,0.221,1.476c0,0.501-0.06,0.981-0.176,1.447
				c-0.119,0.464-0.315,0.875-0.587,1.227c-0.271,0.355-0.619,0.637-1.044,0.844c-0.422,0.209-0.935,0.313-1.534,0.313
				c-0.486,0-0.921-0.086-1.307-0.254c-0.382-0.169-0.711-0.397-0.99-0.684c-0.277-0.286-0.491-0.623-0.637-1.008
				c-0.146-0.382-0.216-0.795-0.216-1.24v-0.872l1.851,0.395v0.478c0,0.375,0.14,0.696,0.422,0.958
				c0.284,0.266,0.602,0.394,0.964,0.394c0.48,0,0.836-0.148,1.073-0.444c0.232-0.297,0.349-0.67,0.349-1.114
				c0-0.357-0.019-0.677-0.061-0.953c-0.042-0.277-0.12-0.555-0.229-0.832c-0.165-0.43-0.371-0.837-0.604-1.227
				c-0.237-0.385-0.489-0.768-0.76-1.141c-0.272-0.374-0.55-0.746-0.832-1.111c-0.287-0.371-0.561-0.732-0.821-1.092
				C43.353,6.92,43.023,6.352,42.78,5.8c-0.245-0.556-0.362-1.25-0.362-2.081c0-0.998,0.27-1.799,0.812-2.409
				C43.771,0.702,44.561,0.396,45.589,0.396z"/>
			<path fill="#5D556C" d="M56.273,14.085c0,0.502-0.08,0.948-0.237,1.344c-0.161,0.394-0.379,0.729-0.655,1.001
				c-0.278,0.267-0.609,0.474-0.992,0.61c-0.381,0.139-0.784,0.21-1.214,0.21c-0.447,0-0.854-0.071-1.23-0.21
				c-0.374-0.137-0.7-0.344-0.978-0.61c-0.28-0.272-0.496-0.607-0.654-1.001c-0.161-0.396-0.241-0.842-0.241-1.344V7.158
				c0-0.501,0.081-0.942,0.241-1.321c0.159-0.383,0.38-0.702,0.664-0.969c0.285-0.264,0.62-0.459,1.011-0.594
				c0.388-0.132,0.803-0.197,1.245-0.197c0.432,0,0.84,0.074,1.22,0.219c0.384,0.145,0.719,0.361,1.01,0.648
				c0.291,0.281,0.52,0.63,0.689,1.038c0.165,0.407,0.248,0.887,0.248,1.427c0,0.857-0.088,1.58-0.261,2.163
				c-0.175,0.582-0.44,1.094-0.801,1.539c-0.36,0.443-0.824,0.846-1.394,1.207c-0.57,0.361-1.25,0.741-2.041,1.144v0.623
				c0,0.431,0.117,0.761,0.345,0.988c0.23,0.23,0.535,0.343,0.929,0.343c0.357,0,0.656-0.112,0.892-0.343
				c0.235-0.228,0.355-0.558,0.355-0.988v-0.206l1.851-0.604V14.085z M54.566,7.512c0-0.639-0.132-1.081-0.394-1.332
				c-0.264-0.249-0.576-0.375-0.94-0.375c-0.371,0-0.687,0.114-0.944,0.345c-0.257,0.228-0.386,0.564-0.386,1.009v4.286
				c0.557-0.264,1.006-0.526,1.354-0.782c0.35-0.254,0.619-0.535,0.812-0.841c0.193-0.307,0.325-0.646,0.396-1.019
				C54.532,8.427,54.566,7.998,54.566,7.512z"/>
			<path fill="#5D556C" d="M60.768,5.805c-0.374,0-0.69,0.114-0.948,0.345c-0.256,0.228-0.384,0.564-0.384,1.009v6.927
				c0,0.431,0.127,0.761,0.384,0.988c0.258,0.23,0.574,0.343,0.948,0.343c0.36,0,0.674-0.108,0.936-0.33
				c0.263-0.224,0.395-0.556,0.395-1.001v-0.206l1.834-0.604v0.81c0,0.542-0.085,1.011-0.25,1.407
				c-0.169,0.395-0.397,0.72-0.689,0.978c-0.29,0.255-0.627,0.451-1.006,0.583c-0.383,0.133-0.79,0.197-1.22,0.197
				c-0.446,0-0.861-0.071-1.248-0.21c-0.39-0.137-0.725-0.344-1.01-0.61c-0.285-0.272-0.506-0.601-0.664-0.992
				c-0.16-0.386-0.24-0.839-0.24-1.353V7.158c0-0.569,0.08-1.05,0.24-1.437c0.158-0.389,0.379-0.705,0.664-0.947
				c0.285-0.241,0.62-0.42,1.01-0.53c0.387-0.109,0.802-0.167,1.248-0.167c0.43,0,0.836,0.058,1.22,0.167
				c0.379,0.11,0.716,0.292,1.006,0.541c0.292,0.25,0.52,0.569,0.689,0.958c0.165,0.389,0.25,0.859,0.25,1.415v0.54h-1.834v-0.54
				c0-0.444-0.132-0.781-0.395-1.009C61.441,5.919,61.127,5.805,60.768,5.805z"/>
			<path fill="#5D556C" d="M68.341,4.077c0.486,0,0.846,0.119,1.082,0.355l-0.622,1.643c-0.101-0.111-0.288-0.166-0.564-0.166
				c-0.317,0-0.601,0.135-0.852,0.406c-0.249,0.271-0.375,0.615-0.375,1.028v9.613h-1.832V4.265h1.207l0.417,0.812
				c0.11-0.222,0.295-0.445,0.55-0.665C67.609,4.188,67.939,4.077,68.341,4.077z"/>
			<path fill="#5D556C" d="M75.771,14.085c0,0.502-0.082,0.948-0.241,1.344c-0.16,0.394-0.378,0.729-0.655,1.001
				c-0.275,0.267-0.604,0.474-0.987,0.61c-0.382,0.139-0.786,0.21-1.219,0.21c-0.442,0-0.849-0.071-1.226-0.21
				c-0.374-0.137-0.702-0.344-0.979-0.61c-0.278-0.272-0.496-0.607-0.653-1.001c-0.161-0.396-0.243-0.842-0.243-1.344V7.158
				c0-0.501,0.082-0.942,0.243-1.321c0.157-0.383,0.38-0.702,0.663-0.969c0.283-0.264,0.621-0.459,1.01-0.594
				c0.389-0.132,0.806-0.197,1.246-0.197c0.432,0,0.838,0.074,1.221,0.219c0.379,0.145,0.719,0.361,1.01,0.648
				c0.291,0.281,0.518,0.63,0.684,1.038c0.17,0.407,0.253,0.887,0.253,1.427c0,0.857-0.088,1.58-0.263,2.163
				c-0.171,0.582-0.439,1.094-0.801,1.539c-0.358,0.443-0.825,0.846-1.395,1.207c-0.566,0.361-1.249,0.741-2.037,1.144v0.623
				c0,0.431,0.111,0.761,0.342,0.988c0.23,0.23,0.539,0.343,0.925,0.343c0.362,0,0.661-0.112,0.897-0.343
				c0.233-0.228,0.354-0.558,0.354-0.988v-0.206l1.852-0.604V14.085z M74.063,7.512c0-0.639-0.134-1.081-0.396-1.332
				c-0.262-0.249-0.574-0.375-0.938-0.375c-0.373,0-0.688,0.114-0.943,0.345c-0.26,0.228-0.385,0.564-0.385,1.009v4.286
				c0.553-0.264,1.004-0.526,1.353-0.782c0.347-0.254,0.615-0.535,0.812-0.841c0.193-0.307,0.326-0.646,0.393-1.019
				C74.03,8.427,74.063,7.998,74.063,7.512z"/>
			<path fill="#5D556C" d="M80.825,15.416c0.391,0,0.664-0.138,0.834-0.413l1.268,1.373c-0.236,0.277-0.541,0.491-0.913,0.645
				c-0.376,0.151-0.743,0.229-1.106,0.229c-0.955,0-1.668-0.269-2.14-0.802s-0.71-1.314-0.71-2.341v-8.24h-1.164V4.244h1.164V1.936
				l1.831-0.626v2.935h2.413v1.623h-2.413v8.24C79.889,14.981,80.204,15.416,80.825,15.416z"/>
			<path fill="#5D556C" d="M89.731,16.957h-1.206l-0.416-0.728c-0.153,0.279-0.39,0.517-0.709,0.719
				c-0.318,0.199-0.743,0.302-1.267,0.302c-0.336,0-0.667-0.064-1.001-0.188c-0.33-0.126-0.632-0.323-0.895-0.593
				c-0.261-0.272-0.474-0.614-0.634-1.032c-0.16-0.415-0.239-0.922-0.239-1.518c0-0.625,0.082-1.175,0.249-1.655
				c0.17-0.479,0.381-0.903,0.645-1.278s0.562-0.709,0.896-1.011c0.331-0.295,0.664-0.568,1-0.81
				c0.331-0.242,0.652-0.474,0.954-0.697c0.309-0.22,0.572-0.452,0.792-0.688V7.158c0-0.401-0.088-0.728-0.261-0.979
				c-0.173-0.249-0.445-0.375-0.824-0.375c-0.705,0-1.155,0.285-1.349,0.853l-1.538-1c0.137-0.205,0.287-0.406,0.446-0.601
				c0.157-0.195,0.353-0.365,0.581-0.51c0.23-0.146,0.496-0.261,0.803-0.344c0.302-0.083,0.664-0.126,1.082-0.126
				c0.873,0,1.574,0.273,2.1,0.812c0.527,0.541,0.791,1.296,0.791,2.269V16.957z M87.943,10.154
				c-0.237,0.152-0.516,0.336-0.835,0.551c-0.317,0.213-0.623,0.472-0.912,0.77c-0.294,0.3-0.539,0.635-0.738,1.01
				c-0.203,0.373-0.304,0.799-0.304,1.269c0,0.53,0.116,0.937,0.354,1.229c0.236,0.29,0.573,0.435,1.019,0.435
				c0.487,0,0.843-0.166,1.07-0.498c0.231-0.331,0.346-0.721,0.346-1.165V10.154z"/>
			<path fill="#5D556C" d="M94.245,4.077c0.488,0,0.848,0.119,1.084,0.355l-0.627,1.643c-0.094-0.111-0.281-0.166-0.559-0.166
				c-0.322,0-0.602,0.135-0.852,0.406c-0.251,0.271-0.377,0.615-0.377,1.028v9.613h-1.83V4.265h1.207l0.416,0.812
				c0.111-0.222,0.293-0.445,0.551-0.665C93.517,4.188,93.845,4.077,94.245,4.077z"/>
			<path fill="#5D556C" d="M96.993,3.287h-1.145L97.782,0h1.729L96.993,3.287z M97.929,16.957h-1.828V4.244h1.828V16.957z"/>
			<path fill="#5D556C" d="M106.209,16.957h-1.206l-0.418-0.728c-0.148,0.279-0.383,0.517-0.705,0.719
				c-0.318,0.199-0.741,0.302-1.267,0.302c-0.333,0-0.67-0.064-1.001-0.188c-0.33-0.126-0.632-0.323-0.896-0.593
				c-0.264-0.272-0.476-0.614-0.634-1.032c-0.161-0.415-0.24-0.922-0.24-1.518c0-0.625,0.084-1.175,0.252-1.655
				c0.166-0.479,0.381-0.903,0.643-1.278c0.264-0.375,0.562-0.709,0.897-1.011c0.33-0.295,0.667-0.568,0.997-0.81
				c0.334-0.242,0.652-0.474,0.958-0.697c0.307-0.22,0.569-0.452,0.791-0.688V7.158c0-0.401-0.088-0.728-0.261-0.979
				c-0.173-0.249-0.448-0.375-0.822-0.375c-0.708,0-1.158,0.285-1.354,0.853l-1.536-1c0.137-0.205,0.287-0.406,0.445-0.601
				c0.161-0.195,0.354-0.365,0.585-0.51c0.229-0.146,0.494-0.261,0.8-0.344c0.304-0.083,0.665-0.126,1.083-0.126
				c0.872,0,1.571,0.273,2.101,0.812c0.525,0.541,0.788,1.296,0.788,2.269V16.957z M104.421,10.154
				c-0.236,0.152-0.513,0.336-0.831,0.551c-0.319,0.213-0.624,0.472-0.915,0.77c-0.293,0.3-0.539,0.635-0.737,1.01
				c-0.204,0.373-0.303,0.799-0.303,1.269c0,0.53,0.116,0.937,0.354,1.229c0.232,0.29,0.573,0.435,1.018,0.435
				c0.486,0,0.842-0.166,1.07-0.498c0.232-0.331,0.344-0.721,0.344-1.165V10.154z"/>
			<path fill="#5D556C" d="M117.553,16.957h-1.244l-0.419-0.603c-0.07,0.194-0.271,0.392-0.604,0.594
				c-0.337,0.199-0.793,0.302-1.372,0.302c-0.849,0-1.516-0.301-2-0.896c-0.488-0.597-0.73-1.401-0.73-2.414V7.158
				c0-0.944,0.24-1.691,0.72-2.249c0.476-0.555,1.167-0.832,2.07-0.832c0.441,0,0.81,0.062,1.102,0.178
				c0.293,0.117,0.49,0.262,0.604,0.426V0.602L117.553,0V16.957z M115.679,7.158c0-0.444-0.13-0.781-0.385-1.009
				c-0.259-0.23-0.566-0.345-0.928-0.345c-0.389,0-0.709,0.111-0.968,0.335c-0.257,0.22-0.385,0.561-0.385,1.019v6.927
				c0,0.445,0.128,0.777,0.385,1.001c0.259,0.222,0.579,0.33,0.968,0.33c0.361,0,0.669-0.108,0.928-0.33
				c0.255-0.224,0.385-0.556,0.385-1.001V7.158z"/>
			<path fill="#5D556C" d="M125.06,14.085c0,0.502-0.08,0.948-0.236,1.344c-0.162,0.394-0.378,0.729-0.656,1.001
				c-0.277,0.267-0.606,0.474-0.988,0.61c-0.38,0.139-0.786,0.21-1.217,0.21c-0.444,0-0.853-0.071-1.228-0.21
				c-0.375-0.137-0.699-0.344-0.977-0.61c-0.277-0.272-0.497-0.607-0.655-1.001c-0.16-0.396-0.24-0.842-0.24-1.344V7.158
				c0-0.501,0.08-0.942,0.24-1.321c0.158-0.383,0.38-0.702,0.664-0.969c0.286-0.264,0.622-0.459,1.011-0.594
				c0.386-0.132,0.804-0.197,1.246-0.197c0.432,0,0.836,0.074,1.221,0.219c0.378,0.145,0.715,0.361,1.007,0.648
				c0.291,0.281,0.52,0.63,0.688,1.038c0.162,0.407,0.247,0.887,0.247,1.427c0,0.857-0.087,1.58-0.259,2.163
				c-0.173,0.582-0.441,1.094-0.802,1.539c-0.36,0.443-0.823,0.846-1.393,1.207c-0.57,0.361-1.251,0.741-2.041,1.144v0.623
				c0,0.431,0.115,0.761,0.344,0.988c0.229,0.23,0.538,0.343,0.926,0.343c0.361,0,0.66-0.112,0.897-0.343
				c0.234-0.228,0.352-0.558,0.352-0.988v-0.206l1.849-0.604V14.085z M123.358,7.512c0-0.639-0.133-1.081-0.396-1.332
				c-0.267-0.249-0.578-0.375-0.938-0.375c-0.374,0-0.688,0.114-0.947,0.345c-0.259,0.228-0.384,0.564-0.384,1.009v4.286
				c0.557-0.264,1.005-0.526,1.354-0.782c0.347-0.254,0.615-0.535,0.813-0.841c0.193-0.307,0.324-0.646,0.395-1.019
				C123.324,8.427,123.358,7.998,123.358,7.512z"/>
		</g>
		<g>
			<path fill="#5D556C" d="M47.436,22.366h-1.705v13.01h-1.65v-13.01h-1.664v-1.647h5.019V22.366z"/>
			<path fill="#5D556C" d="M53.145,32.793c0,0.452-0.07,0.854-0.215,1.21c-0.145,0.354-0.339,0.655-0.589,0.897
				c-0.25,0.242-0.546,0.43-0.89,0.552c-0.344,0.125-0.71,0.185-1.096,0.185c-0.398,0-0.764-0.06-1.104-0.185
				c-0.337-0.122-0.631-0.31-0.88-0.552c-0.251-0.242-0.446-0.543-0.59-0.897c-0.143-0.356-0.214-0.758-0.214-1.21V26.56
				c0-0.448,0.071-0.846,0.214-1.189c0.144-0.343,0.346-0.632,0.603-0.871c0.253-0.236,0.556-0.413,0.906-0.533
				c0.347-0.119,0.723-0.177,1.122-0.177c0.388,0,0.753,0.065,1.095,0.197c0.343,0.13,0.646,0.324,0.91,0.58
				c0.26,0.256,0.467,0.568,0.619,0.937c0.148,0.365,0.227,0.795,0.227,1.281c0,0.773-0.081,1.423-0.24,1.948
				c-0.154,0.521-0.396,0.987-0.717,1.386c-0.327,0.398-0.745,0.761-1.258,1.086c-0.51,0.323-1.12,0.668-1.835,1.028v0.561
				c0,0.388,0.104,0.685,0.31,0.89c0.205,0.206,0.485,0.311,0.833,0.311c0.327,0,0.591-0.104,0.808-0.311
				c0.21-0.205,0.317-0.502,0.317-0.89v-0.188l1.666-0.543V32.793z M51.61,26.878c0-0.574-0.119-0.974-0.354-1.199
				c-0.24-0.224-0.52-0.335-0.845-0.335c-0.337,0-0.621,0.1-0.852,0.309c-0.23,0.207-0.348,0.509-0.348,0.907v3.855
				c0.502-0.239,0.905-0.47,1.22-0.7c0.309-0.233,0.556-0.48,0.73-0.761c0.172-0.275,0.293-0.577,0.355-0.914
				C51.579,27.7,51.61,27.317,51.61,26.878z"/>
			<path fill="#5D556C" d="M57.19,25.344c-0.338,0-0.62,0.1-0.853,0.309c-0.232,0.207-0.348,0.509-0.348,0.907v6.233
				c0,0.388,0.116,0.685,0.348,0.89c0.232,0.206,0.514,0.311,0.853,0.311c0.324,0,0.607-0.1,0.841-0.3
				c0.238-0.201,0.357-0.496,0.357-0.9v-0.188l1.648-0.543v0.73c0,0.49-0.076,0.91-0.225,1.266c-0.149,0.357-0.358,0.649-0.617,0.88
				c-0.263,0.23-0.569,0.405-0.909,0.523c-0.346,0.12-0.712,0.175-1.097,0.175c-0.399,0-0.774-0.06-1.123-0.185
				c-0.35-0.122-0.654-0.31-0.911-0.552c-0.255-0.242-0.453-0.538-0.598-0.891c-0.141-0.347-0.217-0.754-0.217-1.217V26.56
				c0-0.511,0.076-0.942,0.217-1.291c0.145-0.353,0.342-0.633,0.598-0.854c0.256-0.217,0.561-0.377,0.911-0.476
				c0.348-0.1,0.724-0.15,1.123-0.15c0.385,0,0.751,0.051,1.097,0.15c0.339,0.099,0.646,0.259,0.909,0.487
				c0.259,0.224,0.468,0.511,0.617,0.859c0.148,0.35,0.225,0.774,0.225,1.273v0.486h-1.648V26.56c0-0.398-0.119-0.7-0.357-0.907
				C57.797,25.443,57.514,25.344,57.19,25.344z"/>
			<path fill="#5D556C" d="M67.036,35.376h-1.645V26.56c0-0.398-0.133-0.7-0.395-0.907c-0.261-0.209-0.562-0.309-0.9-0.309
				c-0.321,0-0.619,0.1-0.889,0.309c-0.268,0.207-0.403,0.509-0.403,0.907v8.816h-1.646V23.939h1.086l0.373,0.542
				c0.187-0.212,0.418-0.378,0.692-0.505c0.276-0.125,0.644-0.188,1.104-0.188c0.787,0,1.42,0.245,1.902,0.742
				c0.482,0.491,0.719,1.147,0.719,1.972V35.376z"/>
			<path fill="#5D556C" d="M73.909,32.793c0,0.438-0.076,0.834-0.225,1.189c-0.15,0.354-0.355,0.657-0.616,0.9
				c-0.265,0.244-0.567,0.429-0.909,0.562c-0.346,0.131-0.711,0.192-1.096,0.192c-0.398,0-0.775-0.062-1.123-0.192
				c-0.35-0.133-0.651-0.317-0.909-0.562c-0.255-0.243-0.455-0.547-0.599-0.9c-0.143-0.355-0.214-0.752-0.214-1.189V26.56
				c0-0.425,0.071-0.805,0.214-1.15c0.144-0.344,0.344-0.638,0.599-0.878c0.258-0.247,0.56-0.428,0.909-0.555
				c0.348-0.125,0.725-0.188,1.123-0.188c0.385,0,0.75,0.062,1.096,0.188c0.342,0.127,0.645,0.308,0.909,0.555
				c0.261,0.24,0.466,0.534,0.616,0.878c0.148,0.346,0.225,0.726,0.225,1.15V32.793z M72.261,26.56c0-0.398-0.119-0.7-0.354-0.907
				c-0.238-0.209-0.521-0.309-0.844-0.309c-0.34,0-0.621,0.1-0.852,0.309c-0.232,0.207-0.348,0.509-0.348,0.907v6.233
				c0,0.388,0.115,0.685,0.348,0.89c0.23,0.206,0.512,0.311,0.852,0.311c0.323,0,0.605-0.104,0.844-0.311
				c0.234-0.205,0.354-0.502,0.354-0.89V26.56z"/>
			<path fill="#5D556C" d="M76.754,35.376h-1.647V20.661l1.647-0.541V35.376z"/>
			<path fill="#5D556C" d="M83.665,32.793c0,0.438-0.078,0.834-0.227,1.189c-0.148,0.354-0.354,0.657-0.618,0.9
				c-0.261,0.244-0.567,0.429-0.907,0.562c-0.344,0.131-0.709,0.192-1.1,0.192c-0.396,0-0.771-0.062-1.118-0.192
				c-0.351-0.133-0.652-0.317-0.91-0.562c-0.257-0.243-0.454-0.547-0.599-0.9c-0.144-0.355-0.215-0.752-0.215-1.189V26.56
				c0-0.425,0.071-0.805,0.215-1.15c0.145-0.344,0.342-0.638,0.599-0.878c0.258-0.247,0.56-0.428,0.91-0.555
				c0.348-0.125,0.722-0.188,1.118-0.188c0.391,0,0.756,0.062,1.1,0.188c0.34,0.127,0.646,0.308,0.907,0.555
				c0.264,0.24,0.47,0.534,0.618,0.878c0.148,0.346,0.227,0.726,0.227,1.15V32.793z M82.015,26.56c0-0.398-0.119-0.7-0.355-0.907
				c-0.236-0.209-0.519-0.309-0.846-0.309c-0.334,0-0.613,0.1-0.846,0.309c-0.233,0.207-0.349,0.509-0.349,0.907v6.233
				c0,0.388,0.115,0.685,0.349,0.89c0.232,0.206,0.512,0.311,0.846,0.311c0.327,0,0.609-0.104,0.846-0.311
				c0.236-0.205,0.355-0.502,0.355-0.89V26.56z"/>
			<path fill="#5D556C" d="M90.44,25.326v4.49c0,0.789-0.209,1.411-0.621,1.875c-0.414,0.461-1.098,0.735-2.05,0.82
				c-0.442,0.038-0.725,0.142-0.848,0.302c-0.126,0.162-0.188,0.331-0.188,0.508c0,0.111,0.042,0.236,0.121,0.382
				c0.082,0.142,0.216,0.229,0.4,0.251h3.577l-0.917,1.648h-3.35c-0.663,0-0.994,0.222-0.994,0.664c0,0.234,0.086,0.403,0.254,0.508
				c0.169,0.105,0.375,0.157,0.627,0.157h3.021l-0.9,1.648h-2.154c-0.786,0-1.395-0.204-1.818-0.618
				c-0.426-0.412-0.639-0.967-0.639-1.667c0-0.562,0.167-1.036,0.494-1.423c0.332-0.388,0.799-0.654,1.398-0.806
				c-0.201-0.062-0.346-0.168-0.436-0.318c-0.083-0.149-0.129-0.315-0.129-0.503c0-0.176,0.07-0.352,0.216-0.537
				c0.144-0.179,0.379-0.307,0.702-0.382c-0.998-0.509-1.497-1.348-1.497-2.51V26.56c0-0.86,0.247-1.537,0.741-2.028
				c0.496-0.497,1.168-0.742,2.021-0.742c0.438,0,0.798,0.027,1.088,0.083c0.286,0.058,0.501,0.123,0.641,0.198h2.046L90.44,25.326z
				 M88.791,26.524c0-0.426-0.124-0.734-0.372-0.928c-0.252-0.196-0.537-0.292-0.864-0.292c-0.335,0-0.624,0.096-0.868,0.292
				c-0.242,0.193-0.365,0.502-0.365,0.928v3.33c0,0.4,0.123,0.7,0.365,0.9c0.244,0.2,0.533,0.299,0.868,0.299
				c0.327,0,0.612-0.099,0.864-0.299c0.248-0.2,0.372-0.5,0.372-0.9V26.524z"/>
			<path fill="#5D556C" d="M93.024,23.076h-1.031l1.742-2.956h1.555L93.024,23.076z M93.865,35.376H92.22V23.939h1.646V35.376z"/>
			<path fill="#5D556C" d="M101.316,35.376h-1.085l-0.375-0.653c-0.137,0.25-0.35,0.468-0.635,0.645
				c-0.288,0.182-0.67,0.27-1.143,0.27c-0.3,0-0.601-0.052-0.898-0.166c-0.299-0.113-0.57-0.29-0.807-0.532
				c-0.236-0.246-0.429-0.551-0.57-0.929c-0.143-0.373-0.213-0.829-0.213-1.366c0-0.56,0.07-1.057,0.223-1.484
				c0.148-0.435,0.344-0.817,0.58-1.154c0.236-0.338,0.504-0.64,0.805-0.908c0.299-0.269,0.598-0.513,0.899-0.73
				c0.298-0.217,0.587-0.424,0.858-0.626c0.278-0.199,0.516-0.403,0.712-0.618V26.56c0-0.363-0.076-0.655-0.23-0.881
				c-0.155-0.224-0.4-0.335-0.739-0.335c-0.639,0-1.045,0.257-1.22,0.768l-1.385-0.9c0.126-0.187,0.257-0.367,0.403-0.542
				c0.145-0.174,0.318-0.328,0.524-0.458c0.204-0.134,0.442-0.234,0.722-0.307c0.272-0.079,0.596-0.115,0.973-0.115
				c0.783,0,1.415,0.243,1.891,0.731c0.475,0.485,0.71,1.165,0.71,2.039V35.376z M99.707,29.254
				c-0.212,0.142-0.461,0.304-0.751,0.496c-0.286,0.195-0.561,0.426-0.822,0.696c-0.262,0.267-0.482,0.57-0.661,0.905
				c-0.183,0.34-0.274,0.72-0.274,1.145c0,0.473,0.108,0.843,0.32,1.103c0.212,0.262,0.516,0.395,0.916,0.395
				c0.438,0,0.758-0.151,0.966-0.449c0.206-0.299,0.307-0.648,0.307-1.048V29.254z"/>
			<path fill="#5D556C" d="M108.243,32.496c0,0.411-0.059,0.806-0.178,1.178c-0.116,0.376-0.298,0.709-0.544,1.004
				c-0.239,0.294-0.548,0.527-0.913,0.698c-0.369,0.178-0.809,0.261-1.324,0.261c-0.421,0-0.811-0.065-1.16-0.201
				c-0.347-0.139-0.649-0.332-0.907-0.581c-0.255-0.252-0.452-0.55-0.588-0.9c-0.14-0.347-0.206-0.738-0.206-1.161V32.01
				l1.648,0.354v0.43c0,0.364,0.111,0.651,0.334,0.872c0.228,0.219,0.52,0.328,0.879,0.328c0.854,0,1.276-0.401,1.276-1.2
				c0-0.297-0.038-0.551-0.112-0.756c-0.076-0.206-0.182-0.396-0.318-0.574c-0.201-0.223-0.412-0.429-0.637-0.615
				c-0.224-0.187-0.455-0.375-0.686-0.564c-0.229-0.187-0.459-0.377-0.684-0.578c-0.223-0.199-0.434-0.418-0.634-0.655
				c-0.276-0.324-0.498-0.688-0.664-1.086c-0.17-0.399-0.253-0.86-0.253-1.385c0-0.413,0.065-0.789,0.205-1.136
				c0.139-0.34,0.332-0.632,0.581-0.877c0.247-0.244,0.546-0.435,0.892-0.571c0.34-0.139,0.717-0.206,1.131-0.206
				c0.86,0,1.521,0.255,1.984,0.769c0.462,0.511,0.692,1.178,0.692,2.002v0.787l-1.61-0.373V26.56c0-0.375-0.102-0.67-0.31-0.888
				c-0.206-0.22-0.478-0.328-0.817-0.328c-0.346,0-0.619,0.111-0.812,0.335c-0.191,0.226-0.292,0.529-0.292,0.918
				c0,0.438,0.138,0.83,0.416,1.18c0.272,0.351,0.604,0.688,0.991,1.011c0.387,0.326,0.783,0.659,1.189,1.001
				c0.404,0.347,0.738,0.729,0.999,1.152c0.14,0.225,0.246,0.473,0.318,0.739C108.207,31.949,108.243,32.219,108.243,32.496z"/>
			<path fill="#5D556C" d="M118.318,35.376h-1.115l-0.379-0.541c-0.066,0.175-0.246,0.355-0.544,0.532
				c-0.302,0.182-0.716,0.27-1.237,0.27c-0.763,0-1.363-0.265-1.799-0.802c-0.437-0.535-0.657-1.259-0.657-2.172V26.56
				c0-0.848,0.217-1.521,0.647-2.021c0.429-0.5,1.053-0.749,1.861-0.749c0.401,0,0.73,0.053,0.993,0.159
				c0.264,0.106,0.445,0.233,0.544,0.382v-3.669l1.686-0.541V35.376z M116.633,26.56c0-0.398-0.114-0.7-0.346-0.907
				c-0.232-0.209-0.51-0.309-0.834-0.309c-0.349,0-0.641,0.1-0.869,0.299c-0.23,0.201-0.348,0.507-0.348,0.917v6.233
				c0,0.404,0.117,0.699,0.348,0.9c0.229,0.2,0.521,0.3,0.869,0.3c0.324,0,0.602-0.1,0.834-0.3c0.231-0.201,0.346-0.496,0.346-0.9
				V26.56z"/>
			<path fill="#5D556C" d="M125.077,32.793c0,0.452-0.072,0.854-0.219,1.21c-0.144,0.354-0.34,0.655-0.587,0.897
				c-0.252,0.242-0.548,0.43-0.891,0.552c-0.342,0.125-0.707,0.185-1.097,0.185c-0.396,0-0.767-0.06-1.102-0.185
				c-0.339-0.122-0.634-0.31-0.882-0.552s-0.446-0.543-0.588-0.897c-0.144-0.356-0.219-0.758-0.219-1.21V26.56
				c0-0.448,0.075-0.846,0.219-1.189c0.142-0.343,0.341-0.632,0.597-0.871c0.258-0.236,0.558-0.413,0.908-0.533
				c0.35-0.119,0.726-0.177,1.124-0.177c0.388,0,0.753,0.065,1.095,0.197c0.344,0.13,0.647,0.324,0.91,0.58
				c0.261,0.256,0.469,0.568,0.619,0.937c0.146,0.365,0.223,0.795,0.223,1.281c0,0.773-0.077,1.423-0.235,1.948
				c-0.154,0.521-0.396,0.987-0.72,1.386c-0.325,0.398-0.743,0.761-1.254,1.086c-0.511,0.323-1.125,0.668-1.835,1.028v0.561
				c0,0.388,0.101,0.685,0.309,0.89c0.205,0.206,0.485,0.311,0.831,0.311c0.328,0,0.596-0.104,0.81-0.311
				c0.209-0.205,0.315-0.502,0.315-0.89v-0.188l1.668-0.543V32.793z M123.54,26.878c0-0.574-0.116-0.974-0.354-1.199
				c-0.239-0.224-0.519-0.335-0.845-0.335c-0.338,0-0.621,0.1-0.852,0.309c-0.23,0.207-0.346,0.509-0.346,0.907v3.855
				c0.497-0.239,0.903-0.47,1.215-0.7c0.314-0.233,0.555-0.48,0.734-0.761c0.171-0.275,0.291-0.577,0.354-0.914
				C123.509,27.7,123.54,27.317,123.54,26.878z"/>
		</g>
		<g>
			<path fill="#5D556C" d="M43.953,52.409h-1.536V38.674l1.536-0.506V52.409z"/>
			<path fill="#5D556C" d="M50.334,52.409h-1.017l-0.348-0.611c-0.128,0.232-0.325,0.434-0.594,0.604
				c-0.27,0.168-0.623,0.252-1.065,0.252c-0.282,0-0.561-0.051-0.84-0.157c-0.28-0.104-0.53-0.271-0.753-0.497
				c-0.219-0.228-0.398-0.518-0.531-0.866c-0.133-0.35-0.201-0.773-0.201-1.276c0-0.523,0.07-0.985,0.209-1.389
				c0.139-0.4,0.322-0.761,0.542-1.074c0.222-0.314,0.473-0.596,0.752-0.847c0.279-0.251,0.558-0.478,0.838-0.681
				c0.279-0.205,0.549-0.4,0.803-0.587c0.258-0.186,0.48-0.378,0.666-0.577v-0.523c0-0.338-0.074-0.611-0.219-0.821
				c-0.145-0.209-0.376-0.313-0.69-0.313c-0.594,0-0.973,0.237-1.137,0.717l-1.291-0.84c0.115-0.174,0.239-0.343,0.375-0.507
				c0.134-0.163,0.298-0.306,0.488-0.427c0.194-0.124,0.417-0.219,0.672-0.291c0.259-0.068,0.56-0.104,0.91-0.104
				c0.733,0,1.322,0.228,1.765,0.682c0.441,0.453,0.665,1.089,0.665,1.904V52.409z M48.829,46.695
				c-0.197,0.128-0.429,0.282-0.7,0.463c-0.266,0.181-0.523,0.396-0.767,0.646c-0.246,0.251-0.454,0.533-0.62,0.848
				c-0.17,0.313-0.254,0.67-0.254,1.065c0,0.443,0.1,0.787,0.297,1.031c0.198,0.244,0.484,0.367,0.856,0.367
				c0.408,0,0.708-0.141,0.901-0.421c0.19-0.278,0.286-0.604,0.286-0.978V46.695z"/>
			<path fill="#5D556C" d="M56.258,52.409h-1.54V38.728h1.54V52.409z"/>
			<path fill="#5D556C" d="M62.932,52.409h-1.539v-8.23c0-0.372-0.124-0.655-0.366-0.848c-0.245-0.192-0.525-0.287-0.839-0.287
				c-0.304,0-0.58,0.095-0.833,0.287c-0.247,0.192-0.374,0.476-0.374,0.848v8.23h-1.539V41.732h1.016l0.347,0.507
				c0.176-0.197,0.391-0.355,0.647-0.471c0.257-0.117,0.599-0.176,1.032-0.176c0.732,0,1.323,0.23,1.772,0.691
				c0.45,0.459,0.674,1.073,0.674,1.843V52.409z"/>
			<path fill="#5D556C" d="M67.246,38.168c0.419,0,0.827,0.082,1.222,0.243l-0.61,1.486c-0.163-0.129-0.366-0.191-0.611-0.191
				c-0.313,0-0.582,0.093-0.804,0.279c-0.221,0.187-0.332,0.465-0.332,0.838v0.909h1.136v1.364H66.11v9.312h-1.537v-9.312h-0.682
				v-1.364h0.682v-0.909c0-0.419,0.068-0.794,0.209-1.127c0.139-0.332,0.332-0.61,0.578-0.838c0.244-0.229,0.529-0.399,0.854-0.516
				C66.542,38.226,66.886,38.168,67.246,38.168z"/>
			<path fill="#5D556C" d="M73.38,49.997c0,0.408-0.07,0.779-0.209,1.109c-0.142,0.332-0.333,0.613-0.578,0.839
				c-0.243,0.228-0.527,0.401-0.846,0.524c-0.322,0.124-0.661,0.184-1.023,0.184c-0.373,0-0.723-0.06-1.049-0.184
				c-0.324-0.123-0.609-0.297-0.847-0.524c-0.239-0.226-0.427-0.507-0.56-0.839c-0.133-0.33-0.201-0.701-0.201-1.109v-5.818
				c0-0.396,0.068-0.754,0.201-1.074s0.32-0.594,0.56-0.82c0.237-0.229,0.522-0.4,0.847-0.516c0.326-0.117,0.676-0.176,1.049-0.176
				c0.362,0,0.701,0.059,1.023,0.176c0.318,0.115,0.603,0.287,0.846,0.516c0.245,0.227,0.437,0.5,0.578,0.82
				c0.139,0.32,0.209,0.678,0.209,1.074V49.997z M71.841,44.179c0-0.372-0.107-0.655-0.332-0.848
				c-0.221-0.192-0.483-0.287-0.785-0.287c-0.314,0-0.58,0.095-0.793,0.287c-0.218,0.192-0.327,0.476-0.327,0.848v5.818
				c0,0.362,0.109,0.639,0.327,0.832c0.213,0.191,0.479,0.287,0.793,0.287c0.302,0,0.564-0.096,0.785-0.287
				c0.225-0.193,0.332-0.47,0.332-0.832V44.179z"/>
			<path fill="#5D556C" d="M77.153,41.593c0.408,0,0.711,0.098,0.91,0.297l-0.525,1.38c-0.08-0.093-0.24-0.138-0.471-0.138
				c-0.27,0-0.508,0.111-0.717,0.34c-0.211,0.227-0.314,0.516-0.314,0.864v8.073h-1.537V41.751h1.012l0.352,0.68
				c0.092-0.186,0.244-0.373,0.462-0.559C76.539,41.687,76.815,41.593,77.153,41.593z"/>
			<path fill="#5D556C" d="M87.358,52.409h-1.539v-8.23c0-0.372-0.089-0.655-0.268-0.848c-0.18-0.192-0.422-0.287-0.734-0.287
				c-0.314,0-0.555,0.095-0.73,0.287c-0.173,0.192-0.258,0.476-0.258,0.848v8.23h-1.572v-8.23c0-0.372-0.092-0.655-0.271-0.848
				s-0.422-0.287-0.725-0.287c-0.676,0-1.014,0.377-1.014,1.135v8.23H78.71V41.732h1.012l0.352,0.507
				c0.301-0.431,0.756-0.646,1.361-0.646c0.467,0,0.827,0.094,1.086,0.279c0.254,0.186,0.436,0.442,0.539,0.77
				c0.163-0.339,0.388-0.598,0.674-0.778c0.284-0.181,0.736-0.271,1.354-0.271c0.314,0,0.609,0.062,0.883,0.184
				c0.275,0.123,0.512,0.293,0.717,0.515c0.201,0.224,0.365,0.489,0.488,0.806c0.125,0.312,0.184,0.664,0.184,1.047V52.409z"/>
			<path fill="#5D556C" d="M93.702,52.409h-1.014l-0.35-0.611c-0.128,0.232-0.326,0.434-0.594,0.604
				c-0.269,0.168-0.623,0.252-1.066,0.252c-0.279,0-0.56-0.051-0.839-0.157c-0.28-0.104-0.53-0.271-0.751-0.497
				c-0.223-0.228-0.4-0.518-0.531-0.866c-0.136-0.35-0.202-0.773-0.202-1.276c0-0.523,0.069-0.985,0.21-1.389
				c0.138-0.4,0.32-0.761,0.541-1.074c0.221-0.314,0.471-0.596,0.75-0.847c0.28-0.251,0.56-0.478,0.839-0.681
				c0.281-0.205,0.548-0.4,0.806-0.587c0.255-0.186,0.477-0.378,0.664-0.577v-0.523c0-0.338-0.072-0.611-0.219-0.821
				c-0.146-0.209-0.375-0.313-0.691-0.313c-0.594,0-0.971,0.237-1.136,0.717l-1.294-0.84c0.118-0.174,0.242-0.343,0.379-0.507
				c0.131-0.163,0.297-0.306,0.488-0.427c0.193-0.124,0.415-0.219,0.673-0.291c0.254-0.068,0.56-0.104,0.907-0.104
				c0.734,0,1.323,0.228,1.766,0.682c0.441,0.453,0.664,1.089,0.664,1.904V52.409z M92.2,46.695
				c-0.198,0.128-0.434,0.282-0.699,0.463c-0.27,0.181-0.524,0.396-0.77,0.646s-0.451,0.533-0.621,0.848
				c-0.168,0.313-0.254,0.67-0.254,1.065c0,0.443,0.099,0.787,0.297,1.031c0.199,0.244,0.484,0.367,0.857,0.367
				c0.408,0,0.709-0.141,0.9-0.421c0.193-0.278,0.289-0.604,0.289-0.978V46.695z"/>
			<path fill="#5D556C" d="M97.442,43.044c-0.315,0-0.58,0.095-0.797,0.287c-0.216,0.192-0.321,0.476-0.321,0.848v5.818
				c0,0.362,0.105,0.639,0.321,0.832c0.217,0.191,0.481,0.287,0.797,0.287c0.303,0,0.563-0.093,0.787-0.28
				c0.219-0.186,0.33-0.466,0.33-0.839v-0.174l1.538-0.507v0.681c0,0.455-0.069,0.848-0.21,1.181
				c-0.139,0.331-0.332,0.606-0.576,0.821c-0.244,0.216-0.526,0.379-0.85,0.488c-0.318,0.111-0.661,0.166-1.02,0.166
				c-0.375,0-0.725-0.057-1.049-0.174c-0.328-0.116-0.608-0.289-0.849-0.516c-0.239-0.228-0.425-0.504-0.56-0.831
				c-0.133-0.325-0.199-0.704-0.199-1.136v-5.818c0-0.479,0.066-0.879,0.199-1.206c0.135-0.325,0.32-0.591,0.56-0.794
				c0.24-0.204,0.521-0.353,0.849-0.446c0.324-0.093,0.674-0.14,1.049-0.14c0.358,0,0.701,0.047,1.02,0.14
				c0.323,0.094,0.605,0.245,0.85,0.454c0.244,0.21,0.438,0.479,0.576,0.805c0.141,0.326,0.21,0.723,0.21,1.188v0.455H98.56v-0.455
				c0-0.372-0.111-0.655-0.33-0.848C98.006,43.139,97.745,43.044,97.442,43.044z"/>
			<path fill="#5D556C" d="M102.683,39.11c-0.012,0.27-0.088,0.496-0.229,0.683c-0.138,0.187-0.324,0.278-0.559,0.278
				c-0.232,0-0.425-0.092-0.578-0.278c-0.148-0.187-0.223-0.413-0.223-0.683c0-0.244,0.074-0.461,0.223-0.654
				c0.153-0.191,0.346-0.288,0.578-0.288c0.234,0,0.424,0.094,0.567,0.279C102.61,38.635,102.683,38.855,102.683,39.11z
				 M102.629,52.409h-1.534V41.732h1.534V52.409z"/>
			<path fill="#5D556C" d="M109.026,49.997c0,0.408-0.07,0.779-0.209,1.109c-0.142,0.332-0.334,0.613-0.577,0.839
				c-0.246,0.228-0.527,0.401-0.849,0.524c-0.319,0.124-0.661,0.184-1.022,0.184c-0.373,0-0.721-0.06-1.048-0.184
				c-0.326-0.123-0.606-0.297-0.848-0.524c-0.238-0.226-0.424-0.507-0.56-0.839c-0.134-0.33-0.2-0.701-0.2-1.109v-5.818
				c0-0.396,0.066-0.754,0.2-1.074c0.136-0.32,0.321-0.594,0.56-0.82c0.241-0.229,0.521-0.4,0.848-0.516
				c0.327-0.117,0.675-0.176,1.048-0.176c0.361,0,0.703,0.059,1.022,0.176c0.321,0.115,0.603,0.287,0.849,0.516
				c0.243,0.227,0.436,0.5,0.577,0.82c0.139,0.32,0.209,0.678,0.209,1.074V49.997z M107.488,44.179c0-0.372-0.11-0.655-0.331-0.848
				s-0.484-0.287-0.788-0.287c-0.313,0-0.578,0.095-0.794,0.287c-0.215,0.192-0.324,0.476-0.324,0.848v5.818
				c0,0.362,0.109,0.639,0.324,0.832c0.216,0.191,0.48,0.287,0.794,0.287c0.304,0,0.567-0.096,0.788-0.287
				c0.221-0.193,0.331-0.47,0.331-0.832V44.179z M106.318,40.93h-0.961l1.625-2.762h1.45L106.318,40.93z"/>
			<path fill="#5D556C" d="M115.632,52.409h-1.538v-8.23c0-0.372-0.123-0.655-0.367-0.848c-0.245-0.192-0.523-0.287-0.84-0.287
				c-0.302,0-0.578,0.095-0.83,0.287c-0.25,0.192-0.374,0.476-0.374,0.848v8.23h-1.538V41.732h1.013l0.35,0.507
				c0.176-0.197,0.39-0.355,0.647-0.471c0.256-0.117,0.599-0.176,1.029-0.176c0.734,0,1.325,0.23,1.773,0.691
				c0.45,0.459,0.675,1.073,0.675,1.843V52.409z"/>
			<path fill="#5D556C" d="M125.188,55.397h-1.572v-3.32c-0.081,0.129-0.224,0.256-0.428,0.385c-0.204,0.127-0.526,0.191-0.97,0.191
				c-0.291,0-0.582-0.045-0.864-0.139c-0.287-0.094-0.539-0.242-0.762-0.445c-0.221-0.205-0.4-0.47-0.541-0.797
				c-0.141-0.325-0.211-0.727-0.211-1.204v-8.336h1.54v8.265c0,0.373,0.106,0.653,0.321,0.839c0.217,0.188,0.487,0.28,0.814,0.28
				c0.303,0,0.562-0.093,0.776-0.28c0.214-0.186,0.323-0.466,0.323-0.839v-8.265h1.572V55.397z"/>
		</g>
		<g>
			<path fill="#5D556C" d="M43.933,69.759h-1.516V56.207l1.516-0.499V69.759z"/>
			<path fill="#5D556C" d="M50.229,69.759h-1.002l-0.343-0.604c-0.127,0.231-0.322,0.428-0.586,0.595
				C48.03,69.916,47.682,70,47.246,70c-0.278,0-0.554-0.053-0.829-0.155c-0.277-0.104-0.524-0.268-0.743-0.49
				c-0.217-0.226-0.393-0.51-0.525-0.854c-0.132-0.345-0.198-0.766-0.198-1.26c0-0.518,0.069-0.974,0.207-1.37
				c0.138-0.397,0.317-0.751,0.535-1.061c0.218-0.311,0.465-0.589,0.741-0.837c0.276-0.246,0.552-0.472,0.829-0.671
				c0.274-0.202,0.539-0.395,0.791-0.578c0.254-0.185,0.473-0.374,0.656-0.569v-0.518c0-0.333-0.073-0.604-0.215-0.811
				c-0.143-0.206-0.371-0.31-0.681-0.31c-0.585,0-0.961,0.236-1.121,0.707l-1.274-0.827c0.114-0.174,0.236-0.34,0.369-0.5
				c0.133-0.16,0.295-0.302,0.482-0.423c0.191-0.121,0.411-0.215,0.664-0.285c0.254-0.067,0.551-0.104,0.898-0.104
				c0.722,0,1.304,0.224,1.741,0.673c0.436,0.448,0.656,1.074,0.656,1.879V69.759z M48.744,64.12
				c-0.195,0.127-0.424,0.28-0.69,0.457c-0.263,0.18-0.517,0.391-0.757,0.639c-0.242,0.246-0.448,0.526-0.612,0.836
				c-0.167,0.311-0.251,0.662-0.251,1.052c0,0.438,0.099,0.777,0.293,1.017c0.195,0.241,0.477,0.362,0.844,0.362
				c0.403,0,0.698-0.138,0.89-0.414c0.188-0.275,0.283-0.597,0.283-0.965V64.12z"/>
			<path fill="#5D556C" d="M59.76,67.379c0,0.414-0.067,0.785-0.207,1.112c-0.137,0.328-0.325,0.604-0.56,0.829
				c-0.236,0.222-0.511,0.392-0.829,0.508C57.851,69.942,57.507,70,57.14,70c-0.356,0-0.692-0.058-1.007-0.172
				c-0.317-0.116-0.595-0.286-0.837-0.508c-0.241-0.226-0.431-0.501-0.569-0.829c-0.138-0.327-0.207-0.698-0.207-1.112v-8.723
				c0-0.449,0.069-0.836,0.207-1.164s0.328-0.602,0.569-0.819c0.243-0.219,0.521-0.379,0.837-0.482
				c0.315-0.104,0.651-0.154,1.007-0.154c0.367,0,0.71,0.062,1.025,0.188c0.318,0.128,0.593,0.303,0.829,0.527
				c0.234,0.224,0.423,0.499,0.56,0.826c0.139,0.328,0.207,0.688,0.207,1.079v0.447h-1.516v-0.447c0-0.38-0.11-0.658-0.329-0.836
				c-0.219-0.179-0.475-0.269-0.776-0.269c-0.31,0-0.571,0.09-0.784,0.269c-0.214,0.178-0.32,0.456-0.32,0.836v8.723
				c0,0.312,0.106,0.573,0.32,0.785c0.212,0.213,0.474,0.318,0.784,0.318c0.301,0,0.557-0.105,0.776-0.318
				c0.218-0.212,0.329-0.474,0.329-0.785v-0.172l1.516-0.5V67.379z"/>
			<path fill="#5D556C" d="M65.984,67.379c0,0.403-0.069,0.768-0.208,1.096c-0.139,0.326-0.325,0.604-0.567,0.828
				c-0.241,0.224-0.521,0.396-0.837,0.517C64.057,69.94,63.721,70,63.363,70c-0.367,0-0.714-0.06-1.033-0.181
				c-0.322-0.121-0.601-0.293-0.837-0.517c-0.234-0.225-0.419-0.502-0.551-0.828c-0.132-0.328-0.197-0.692-0.197-1.096v-5.741
				c0-0.39,0.065-0.744,0.197-1.06c0.132-0.316,0.317-0.587,0.551-0.811c0.236-0.225,0.516-0.394,0.837-0.508
				c0.319-0.115,0.667-0.174,1.033-0.174c0.358,0,0.694,0.059,1.009,0.174c0.316,0.114,0.596,0.283,0.837,0.508
				c0.242,0.224,0.429,0.494,0.567,0.811c0.139,0.315,0.208,0.67,0.208,1.06V67.379z M64.466,61.638
				c0-0.368-0.107-0.646-0.326-0.836c-0.22-0.189-0.476-0.284-0.777-0.284c-0.31,0-0.571,0.095-0.784,0.284
				c-0.213,0.189-0.319,0.468-0.319,0.836v5.741c0,0.356,0.106,0.63,0.319,0.82c0.212,0.188,0.474,0.283,0.784,0.283
				c0.301,0,0.557-0.095,0.777-0.283c0.219-0.19,0.326-0.464,0.326-0.82V61.638z"/>
			<path fill="#5D556C" d="M75.624,69.759h-1.52v-8.121c0-0.368-0.088-0.646-0.264-0.836c-0.179-0.189-0.42-0.284-0.727-0.284
				c-0.31,0-0.547,0.095-0.719,0.284c-0.17,0.189-0.256,0.468-0.256,0.836v8.121h-1.553v-8.121c0-0.368-0.089-0.646-0.266-0.836
				c-0.178-0.189-0.418-0.284-0.715-0.284c-0.668,0-1,0.374-1,1.12v8.121h-1.519V59.224h0.999l0.347,0.502
				c0.297-0.426,0.747-0.64,1.345-0.64c0.459,0,0.816,0.093,1.068,0.275c0.252,0.186,0.432,0.438,0.535,0.761
				c0.16-0.335,0.38-0.591,0.664-0.769c0.28-0.177,0.726-0.268,1.335-0.268c0.312,0,0.601,0.061,0.872,0.182
				c0.268,0.12,0.504,0.29,0.707,0.508c0.199,0.218,0.36,0.484,0.481,0.793c0.122,0.312,0.183,0.656,0.183,1.036V69.759z"/>
			<path fill="#5D556C" d="M81.915,69.759h-1l-0.346-0.5c-0.104,0.149-0.271,0.309-0.508,0.481C79.825,69.914,79.461,70,78.967,70
				c-0.69,0-1.233-0.241-1.63-0.723c-0.396-0.482-0.595-1.174-0.595-2.07v-7.983h1.519v8.155c0,0.356,0.101,0.63,0.3,0.82
				c0.202,0.188,0.458,0.283,0.768,0.283c0.3,0,0.552-0.089,0.761-0.267c0.205-0.179,0.309-0.458,0.309-0.837v-8.155h1.518V69.759z"
				/>
			<path fill="#5D556C" d="M88.485,69.759h-1.519v-8.121c0-0.368-0.12-0.646-0.362-0.836c-0.241-0.189-0.517-0.284-0.826-0.284
				c-0.3,0-0.573,0.095-0.82,0.284c-0.248,0.189-0.371,0.468-0.371,0.836v8.121h-1.518V59.224h0.999l0.347,0.502
				c0.172-0.196,0.385-0.352,0.639-0.466c0.252-0.115,0.592-0.174,1.018-0.174c0.723,0,1.307,0.229,1.75,0.682
				c0.441,0.454,0.664,1.06,0.664,1.819V69.759z"/>
			<path fill="#5D556C" d="M91.138,56.638c-0.012,0.266-0.086,0.488-0.223,0.673c-0.138,0.184-0.323,0.276-0.553,0.276
				c-0.229,0-0.42-0.093-0.567-0.276c-0.149-0.185-0.225-0.407-0.225-0.673c0-0.24,0.075-0.457,0.225-0.646
				c0.147-0.19,0.339-0.284,0.567-0.284c0.229,0,0.418,0.092,0.561,0.275C91.065,56.168,91.138,56.385,91.138,56.638z
				 M91.086,69.759H89.57V59.224h1.516V69.759z"/>
			<path fill="#5D556C" d="M94.775,60.518c-0.308,0-0.57,0.095-0.782,0.284c-0.213,0.189-0.32,0.468-0.32,0.836v5.741
				c0,0.356,0.107,0.63,0.32,0.82c0.212,0.188,0.475,0.283,0.782,0.283c0.302,0,0.558-0.091,0.778-0.275
				c0.217-0.184,0.325-0.46,0.325-0.828v-0.172l1.519-0.5v0.672c0,0.449-0.07,0.837-0.207,1.164
				c-0.139,0.328-0.326,0.598-0.569,0.812c-0.241,0.213-0.521,0.372-0.836,0.482C95.469,69.945,95.133,70,94.775,70
				c-0.366,0-0.712-0.058-1.034-0.172c-0.321-0.116-0.6-0.286-0.837-0.508c-0.233-0.226-0.419-0.499-0.551-0.819
				c-0.132-0.323-0.196-0.696-0.196-1.122v-5.741c0-0.471,0.064-0.867,0.196-1.189c0.132-0.321,0.317-0.583,0.551-0.783
				c0.237-0.201,0.516-0.349,0.837-0.441c0.322-0.09,0.668-0.138,1.034-0.138c0.357,0,0.693,0.048,1.01,0.138
				c0.315,0.093,0.595,0.242,0.836,0.449c0.243,0.207,0.431,0.472,0.569,0.794c0.137,0.321,0.207,0.712,0.207,1.171v0.449h-1.519
				v-0.449c0-0.368-0.108-0.646-0.325-0.836C95.333,60.612,95.077,60.518,94.775,60.518z"/>
			<path fill="#5D556C" d="M103.551,69.759h-0.999l-0.346-0.604c-0.126,0.231-0.32,0.428-0.586,0.595
				c-0.264,0.166-0.613,0.25-1.051,0.25c-0.275,0-0.553-0.053-0.829-0.155c-0.274-0.104-0.522-0.268-0.739-0.49
				c-0.221-0.226-0.395-0.51-0.525-0.854c-0.133-0.345-0.199-0.766-0.199-1.26c0-0.518,0.068-0.974,0.207-1.37
				c0.137-0.397,0.314-0.751,0.535-1.061c0.216-0.311,0.465-0.589,0.739-0.837c0.276-0.246,0.553-0.472,0.828-0.671
				c0.276-0.202,0.539-0.395,0.794-0.578c0.25-0.185,0.471-0.374,0.656-0.569v-0.518c0-0.333-0.074-0.604-0.217-0.811
				c-0.146-0.206-0.369-0.31-0.682-0.31c-0.586,0-0.959,0.236-1.121,0.707l-1.276-0.827c0.116-0.174,0.239-0.34,0.373-0.5
				c0.13-0.16,0.291-0.302,0.481-0.423c0.189-0.121,0.41-0.215,0.664-0.285c0.251-0.067,0.552-0.104,0.896-0.104
				c0.725,0,1.305,0.224,1.74,0.673c0.438,0.448,0.655,1.074,0.655,1.879V69.759z M102.069,64.12
				c-0.195,0.127-0.426,0.28-0.689,0.457c-0.266,0.18-0.518,0.391-0.76,0.639c-0.24,0.246-0.445,0.526-0.611,0.836
				c-0.166,0.311-0.251,0.662-0.251,1.052c0,0.438,0.098,0.777,0.294,1.017c0.195,0.241,0.477,0.362,0.846,0.362
				c0.401,0,0.697-0.138,0.886-0.414c0.191-0.275,0.286-0.597,0.286-0.965V64.12z"/>
			<path fill="#5D556C" d="M107.241,60.518c-0.312,0-0.572,0.095-0.785,0.284s-0.318,0.468-0.318,0.836v5.741
				c0,0.356,0.105,0.63,0.318,0.82c0.213,0.188,0.474,0.283,0.785,0.283c0.299,0,0.557-0.091,0.777-0.275
				c0.216-0.184,0.326-0.46,0.326-0.828v-0.172l1.517-0.5v0.672c0,0.449-0.067,0.837-0.207,1.164
				c-0.139,0.328-0.327,0.598-0.567,0.812c-0.242,0.213-0.52,0.372-0.838,0.482c-0.314,0.108-0.651,0.163-1.008,0.163
				c-0.368,0-0.714-0.058-1.033-0.172c-0.323-0.116-0.602-0.286-0.838-0.508c-0.234-0.226-0.419-0.499-0.551-0.819
				c-0.133-0.323-0.198-0.696-0.198-1.122v-5.741c0-0.471,0.065-0.867,0.198-1.189c0.132-0.321,0.316-0.583,0.551-0.783
				c0.236-0.201,0.515-0.349,0.838-0.441c0.319-0.09,0.665-0.138,1.033-0.138c0.356,0,0.693,0.048,1.008,0.138
				c0.318,0.093,0.596,0.242,0.838,0.449c0.24,0.207,0.429,0.472,0.567,0.794c0.14,0.321,0.207,0.712,0.207,1.171v0.449h-1.517
				v-0.449c0-0.368-0.11-0.646-0.326-0.836C107.798,60.612,107.54,60.518,107.241,60.518z"/>
			<path fill="#5D556C" d="M112.413,56.638c-0.012,0.266-0.086,0.488-0.224,0.673c-0.138,0.184-0.322,0.276-0.551,0.276
				c-0.23,0-0.421-0.093-0.57-0.276c-0.147-0.185-0.224-0.407-0.224-0.673c0-0.24,0.076-0.457,0.224-0.646
				c0.149-0.19,0.34-0.284,0.57-0.284c0.229,0,0.415,0.092,0.558,0.275C112.341,56.168,112.413,56.385,112.413,56.638z
				 M112.36,69.759h-1.516V59.224h1.516V69.759z"/>
			<path fill="#5D556C" d="M118.674,67.379c0,0.403-0.07,0.768-0.209,1.096c-0.138,0.326-0.327,0.604-0.569,0.828
				c-0.24,0.224-0.519,0.396-0.835,0.517c-0.317,0.121-0.653,0.181-1.01,0.181c-0.367,0-0.714-0.06-1.033-0.181
				c-0.323-0.121-0.601-0.293-0.837-0.517c-0.235-0.225-0.42-0.502-0.553-0.828c-0.131-0.328-0.196-0.692-0.196-1.096v-5.741
				c0-0.39,0.065-0.744,0.196-1.06c0.133-0.316,0.317-0.587,0.553-0.811c0.236-0.225,0.514-0.394,0.837-0.508
				c0.319-0.115,0.666-0.174,1.033-0.174c0.356,0,0.692,0.059,1.01,0.174c0.316,0.114,0.595,0.283,0.835,0.508
				c0.242,0.224,0.432,0.494,0.569,0.811c0.139,0.315,0.209,0.67,0.209,1.06V67.379z M117.154,61.638
				c0-0.368-0.108-0.646-0.326-0.836c-0.22-0.189-0.477-0.284-0.777-0.284c-0.309,0-0.571,0.095-0.784,0.284
				c-0.212,0.189-0.318,0.468-0.318,0.836v5.741c0,0.356,0.106,0.63,0.318,0.82c0.213,0.188,0.476,0.283,0.784,0.283
				c0.301,0,0.558-0.095,0.777-0.283c0.218-0.19,0.326-0.464,0.326-0.82V61.638z M115.999,58.431h-0.947l1.603-2.723h1.433
				L115.999,58.431z"/>
			<path fill="#5D556C" d="M125.189,69.759h-1.518v-8.121c0-0.368-0.12-0.646-0.362-0.836s-0.517-0.284-0.828-0.284
				c-0.297,0-0.571,0.095-0.818,0.284s-0.37,0.468-0.37,0.836v8.121h-1.517V59.224h0.998l0.346,0.502
				c0.173-0.196,0.385-0.352,0.639-0.466c0.253-0.115,0.591-0.174,1.017-0.174c0.725,0,1.308,0.229,1.749,0.682
				c0.443,0.454,0.665,1.06,0.665,1.819V69.759z"/>
		</g>
	</g>
</g>
</svg>
