<?xml version="1.0" encoding="utf-8"?>
<!-- Generator: Adobe Illustrator 14.0.0, SVG Export Plug-In . SVG Version: 6.00 Build 43363)  -->
<!DOCTYPE svg PUBLIC "-//W3C//DTD SVG 1.1//EN" "http://www.w3.org/Graphics/SVG/1.1/DTD/svg11.dtd">
<svg version="1.1" id="Capa_1" xmlns="http://www.w3.org/2000/svg" xmlns:xlink="http://www.w3.org/1999/xlink" x="0px" y="0px"
	 width="420.19px" height="60px" viewBox="0 0 420.19 60" enable-background="new 0 0 420.19 60" xml:space="preserve">
<g>
	<g>
		<g>
			<g>
				<path fill="#6ABDAB" d="M102.994,58.767h-5.693V40.911c0-1.167-0.085-2.114-0.258-2.85c-0.173-0.729-0.453-1.293-0.841-1.678
					c-0.388-0.39-0.894-0.66-1.521-0.811c-0.625-0.15-1.391-0.226-2.297-0.226h-3.361v23.419h-5.693V8.115h9.833
					c3.103,0,5.466,0.853,7.082,2.557c1.616,1.705,2.427,4.236,2.427,7.599v6.985c0,1.812-0.411,3.287-1.231,4.43
					c-0.818,1.143-1.918,1.953-3.297,2.427c1.335,0.433,2.479,1.294,3.429,2.586c0.947,1.296,1.423,3.129,1.423,5.5V58.767z
					 M96.977,19.242c0-1.815-0.313-3.167-0.936-4.078c-0.626-0.902-1.973-1.356-4.045-1.356h-2.974v16.299h2.974
					c1.727,0,2.987-0.406,3.784-1.228c0.798-0.819,1.197-2.239,1.197-4.272V19.242z"/>
				<path fill="#6ABDAB" d="M112.502,55.399c0,0.995-0.236,1.867-0.713,2.621c-0.473,0.752-1.186,1.135-2.132,1.135
					c-0.994,0-1.715-0.4-2.168-1.202c-0.453-0.795-0.682-1.648-0.682-2.554c0-0.992,0.229-1.875,0.682-2.651
					c0.453-0.774,1.174-1.161,2.168-1.161c0.946,0,1.659,0.374,2.132,1.127C112.266,53.472,112.502,54.366,112.502,55.399z"/>
				<path fill="#6ABDAB" d="M122.076,58.767h-5.694V8.115h5.694V58.767z"/>
				<path fill="#6ABDAB" d="M131.775,55.399c0,0.995-0.235,1.867-0.711,2.621c-0.472,0.752-1.185,1.135-2.133,1.135
					c-0.993,0-1.715-0.4-2.168-1.202c-0.452-0.795-0.679-1.648-0.679-2.554c0-0.992,0.227-1.875,0.679-2.651
					c0.453-0.774,1.175-1.161,2.168-1.161c0.948,0,1.661,0.374,2.133,1.127C131.54,53.472,131.775,54.366,131.775,55.399z"/>
				<path fill="#6ABDAB" d="M155.518,58.767h-5.758l-0.841-6.28h-7.181l-0.775,6.28h-6.081l7.765-50.651h5.239L155.518,58.767z
					 M148.273,47.186l-2.911-22.19l-2.977,22.19H148.273z"/>
			</g>
		</g>
		<g>
			<g>
				<path fill="#FFFFFF" d="M164.789,23.152h-1.624v-5.092c0-0.331-0.023-0.599-0.069-0.809c-0.051-0.208-0.131-0.369-0.243-0.48
					c-0.109-0.112-0.253-0.188-0.432-0.23c-0.179-0.047-0.398-0.065-0.656-0.065h-0.956v6.677h-1.624V8.707h2.801
					c0.887,0,1.56,0.244,2.021,0.729c0.463,0.488,0.691,1.21,0.691,2.17v1.993c0,0.514-0.113,0.937-0.35,1.262
					c-0.232,0.325-0.547,0.557-0.942,0.691c0.384,0.124,0.71,0.37,0.981,0.738c0.269,0.369,0.402,0.892,0.402,1.569V23.152z
					 M163.073,11.881c0-0.516-0.086-0.904-0.265-1.16c-0.18-0.257-0.566-0.389-1.153-0.389h-0.847v4.649h0.847
					c0.492,0,0.852-0.118,1.078-0.351c0.229-0.235,0.34-0.641,0.34-1.219V11.881z"/>
				<path fill="#FFFFFF" d="M171.433,20.607c0,0.443-0.071,0.839-0.214,1.192c-0.14,0.347-0.335,0.642-0.584,0.884
					c-0.242,0.238-0.535,0.422-0.872,0.544c-0.34,0.123-0.697,0.187-1.082,0.187c-0.393,0-0.752-0.063-1.085-0.187
					c-0.33-0.122-0.623-0.306-0.871-0.544c-0.242-0.242-0.435-0.537-0.58-0.884c-0.139-0.354-0.21-0.749-0.21-1.192v-6.143
					c0-0.441,0.071-0.833,0.21-1.172c0.146-0.337,0.341-0.623,0.592-0.857c0.254-0.235,0.553-0.41,0.896-0.524
					c0.344-0.116,0.714-0.177,1.106-0.177c0.381,0,0.742,0.062,1.079,0.195c0.338,0.128,0.637,0.316,0.897,0.569
					c0.256,0.253,0.461,0.56,0.607,0.922c0.147,0.364,0.22,0.786,0.22,1.264c0,0.766-0.076,1.405-0.23,1.919
					c-0.154,0.519-0.392,0.974-0.708,1.365c-0.322,0.395-0.735,0.752-1.237,1.067c-0.505,0.325-1.11,0.66-1.809,1.02v0.552
					c0,0.379,0.101,0.675,0.305,0.875c0.204,0.203,0.477,0.307,0.818,0.307c0.323,0,0.587-0.104,0.797-0.307
					c0.209-0.2,0.313-0.496,0.313-0.875v-0.187l1.642-0.533V20.607z M169.919,14.779c0-0.567-0.117-0.96-0.35-1.181
					c-0.234-0.225-0.513-0.332-0.831-0.332c-0.33,0-0.61,0.101-0.841,0.305c-0.225,0.203-0.34,0.499-0.34,0.894v3.801
					c0.492-0.234,0.892-0.466,1.2-0.693c0.308-0.227,0.546-0.475,0.72-0.745c0.17-0.271,0.286-0.573,0.351-0.905
					C169.886,15.589,169.919,15.21,169.919,14.779z"/>
				<path fill="#FFFFFF" d="M178.278,20.607c0,0.492-0.068,0.913-0.205,1.264c-0.134,0.35-0.315,0.641-0.543,0.868
					c-0.229,0.227-0.489,0.396-0.785,0.504c-0.294,0.111-0.597,0.171-0.904,0.171c-0.369,0-0.678-0.063-0.922-0.177
					c-0.246-0.117-0.457-0.271-0.63-0.452v3.521h-1.619V11.881h1.069l0.366,0.537c0.173-0.173,0.392-0.329,0.657-0.471
					c0.265-0.142,0.598-0.213,1.005-0.213c0.813,0,1.435,0.243,1.861,0.729c0.432,0.487,0.649,1.148,0.649,1.982V20.607z
					 M176.652,14.465c0-0.37-0.112-0.66-0.341-0.879c-0.227-0.212-0.507-0.319-0.84-0.319c-0.331,0-0.61,0.107-0.836,0.319
					c-0.23,0.219-0.347,0.509-0.347,0.879v6.143c0,0.395,0.116,0.688,0.347,0.888c0.226,0.197,0.505,0.294,0.836,0.294
					c0.333,0,0.613-0.097,0.84-0.294c0.229-0.199,0.341-0.493,0.341-0.888V14.465z"/>
				<path fill="#FFFFFF" d="M184.863,20.607c0,0.428-0.075,0.82-0.221,1.169c-0.147,0.351-0.352,0.651-0.611,0.888
					c-0.257,0.238-0.558,0.426-0.894,0.552c-0.341,0.131-0.698,0.198-1.082,0.198c-0.393,0-0.761-0.067-1.103-0.198
					c-0.347-0.126-0.644-0.313-0.896-0.552c-0.254-0.236-0.451-0.537-0.593-0.888c-0.142-0.349-0.21-0.741-0.21-1.169v-6.143
					c0-0.418,0.068-0.795,0.21-1.135s0.339-0.627,0.593-0.867c0.252-0.24,0.549-0.423,0.896-0.546
					c0.342-0.122,0.71-0.183,1.103-0.183c0.384,0,0.741,0.061,1.082,0.183c0.336,0.123,0.637,0.306,0.894,0.546
					c0.26,0.24,0.464,0.527,0.611,0.867c0.146,0.34,0.221,0.717,0.221,1.135V20.607z M183.241,14.465
					c0-0.395-0.119-0.69-0.353-0.894c-0.236-0.204-0.513-0.305-0.833-0.305c-0.33,0-0.608,0.101-0.84,0.305
					c-0.226,0.203-0.342,0.499-0.342,0.894v6.143c0,0.379,0.116,0.675,0.342,0.875c0.231,0.203,0.51,0.307,0.84,0.307
					c0.32,0,0.597-0.104,0.833-0.307c0.233-0.2,0.353-0.496,0.353-0.875V14.465z"/>
				<path fill="#FFFFFF" d="M191.67,20.312c0,0.406-0.059,0.796-0.174,1.163c-0.118,0.37-0.295,0.698-0.535,0.985
					c-0.239,0.291-0.544,0.522-0.906,0.692c-0.361,0.172-0.796,0.262-1.298,0.262c-0.42,0-0.8-0.07-1.144-0.205
					c-0.347-0.134-0.644-0.328-0.896-0.573c-0.254-0.243-0.446-0.541-0.58-0.885c-0.136-0.343-0.205-0.727-0.205-1.144v-0.776
					l1.621,0.354v0.422c0,0.358,0.111,0.644,0.336,0.856c0.22,0.218,0.512,0.325,0.868,0.325c0.833,0,1.253-0.396,1.253-1.182
					c0-0.296-0.039-0.544-0.11-0.746c-0.076-0.204-0.179-0.391-0.312-0.563c-0.197-0.221-0.41-0.425-0.631-0.606
					c-0.223-0.187-0.446-0.371-0.672-0.556c-0.229-0.186-0.452-0.377-0.672-0.571c-0.221-0.196-0.434-0.413-0.631-0.647
					c-0.271-0.318-0.488-0.675-0.654-1.069c-0.166-0.393-0.25-0.847-0.25-1.363c0-0.406,0.069-0.777,0.206-1.117
					c0.134-0.339,0.325-0.628,0.57-0.868c0.246-0.238,0.538-0.427,0.876-0.563c0.339-0.134,0.712-0.201,1.116-0.201
					c0.852,0,1.502,0.249,1.956,0.755c0.455,0.506,0.683,1.163,0.683,1.976v0.775l-1.586-0.371v-0.404
					c0-0.37-0.103-0.66-0.307-0.879c-0.202-0.212-0.468-0.319-0.801-0.319c-0.345,0-0.615,0.107-0.802,0.332
					c-0.191,0.221-0.288,0.521-0.288,0.902c0,0.432,0.136,0.82,0.406,1.163c0.271,0.344,0.6,0.676,0.979,0.995
					c0.379,0.322,0.772,0.65,1.171,0.989c0.396,0.338,0.729,0.715,0.985,1.132c0.137,0.223,0.241,0.466,0.315,0.73
					C191.636,19.772,191.67,20.043,191.67,20.312z"/>
				<path fill="#FFFFFF" d="M194.364,9.113c-0.014,0.282-0.093,0.525-0.239,0.719c-0.15,0.199-0.347,0.296-0.594,0.296
					c-0.244,0-0.446-0.097-0.606-0.296c-0.163-0.193-0.239-0.437-0.239-0.719c0-0.258,0.076-0.487,0.239-0.689
					c0.16-0.205,0.362-0.307,0.606-0.307c0.247,0,0.446,0.097,0.602,0.296C194.285,8.61,194.364,8.844,194.364,9.113z
					 M194.308,23.152h-1.622V11.881h1.622V23.152z"/>
				<path fill="#FFFFFF" d="M198.754,21.789c0.347,0,0.592-0.123,0.738-0.369l1.126,1.216c-0.213,0.245-0.48,0.439-0.812,0.573
					c-0.331,0.135-0.659,0.205-0.979,0.205c-0.849,0-1.48-0.238-1.898-0.713c-0.417-0.473-0.63-1.166-0.63-2.075V13.32h-1.034
					v-1.439h1.034V9.832l1.622-0.552v2.601h2.146v1.439h-2.146v7.306C197.921,21.401,198.203,21.789,198.754,21.789z"/>
				<path fill="#FFFFFF" d="M206.649,20.607c0,0.428-0.073,0.82-0.22,1.169c-0.147,0.351-0.351,0.651-0.606,0.888
					c-0.261,0.238-0.558,0.426-0.899,0.552c-0.338,0.131-0.698,0.198-1.076,0.198c-0.395,0-0.764-0.067-1.11-0.198
					c-0.342-0.126-0.641-0.313-0.894-0.552c-0.249-0.236-0.445-0.537-0.591-0.888c-0.139-0.349-0.213-0.741-0.213-1.169v-6.143
					c0-0.418,0.074-0.795,0.213-1.135c0.146-0.34,0.342-0.627,0.591-0.867c0.253-0.24,0.552-0.423,0.894-0.546
					c0.347-0.122,0.716-0.183,1.11-0.183c0.378,0,0.738,0.061,1.076,0.183c0.342,0.123,0.639,0.306,0.899,0.546
					c0.256,0.24,0.459,0.527,0.606,0.867c0.146,0.34,0.22,0.717,0.22,1.135V20.607z M205.024,14.465c0-0.395-0.115-0.69-0.347-0.894
					c-0.234-0.204-0.515-0.305-0.83-0.305c-0.331,0-0.613,0.101-0.843,0.305c-0.226,0.203-0.341,0.499-0.341,0.894v6.143
					c0,0.379,0.115,0.675,0.341,0.875c0.229,0.203,0.512,0.307,0.843,0.307c0.315,0,0.596-0.104,0.83-0.307
					c0.231-0.2,0.347-0.496,0.347-0.875V14.465z"/>
				<path fill="#FFFFFF" d="M210.633,11.734c0.432,0,0.752,0.104,0.959,0.313l-0.552,1.458c-0.087-0.098-0.255-0.149-0.499-0.149
					c-0.28,0-0.533,0.122-0.756,0.362c-0.222,0.239-0.331,0.542-0.331,0.912v8.521h-1.623v-11.25h1.071l0.367,0.716
					c0.098-0.195,0.261-0.392,0.489-0.59C209.984,11.832,210.276,11.734,210.633,11.734z"/>
				<path fill="#FFFFFF" d="M213.897,9.113c-0.009,0.282-0.093,0.525-0.237,0.719c-0.146,0.199-0.344,0.296-0.591,0.296
					s-0.449-0.097-0.605-0.296c-0.163-0.193-0.243-0.437-0.243-0.719c0-0.258,0.08-0.487,0.243-0.689
					c0.156-0.205,0.358-0.307,0.605-0.307s0.444,0.097,0.6,0.296C213.824,8.61,213.897,8.844,213.897,9.113z M213.845,23.152h-1.624
					V11.881h1.624V23.152z"/>
				<path fill="#FFFFFF" d="M220.595,20.607c0,0.428-0.07,0.82-0.22,1.169c-0.145,0.351-0.35,0.651-0.606,0.888
					c-0.258,0.238-0.56,0.426-0.898,0.552c-0.334,0.131-0.696,0.198-1.079,0.198c-0.392,0-0.759-0.067-1.105-0.198
					c-0.345-0.126-0.644-0.313-0.893-0.552c-0.252-0.236-0.45-0.537-0.591-0.888c-0.143-0.349-0.213-0.741-0.213-1.169v-6.143
					c0-0.418,0.07-0.795,0.213-1.135c0.141-0.34,0.339-0.627,0.591-0.867c0.249-0.24,0.548-0.423,0.893-0.546
					c0.347-0.122,0.714-0.183,1.105-0.183c0.383,0,0.745,0.061,1.079,0.183c0.339,0.123,0.641,0.306,0.898,0.546
					c0.257,0.24,0.462,0.527,0.606,0.867c0.149,0.34,0.22,0.717,0.22,1.135V20.607z M218.973,14.465c0-0.395-0.115-0.69-0.35-0.894
					c-0.233-0.204-0.512-0.305-0.832-0.305c-0.331,0-0.611,0.101-0.835,0.305c-0.231,0.203-0.341,0.499-0.341,0.894v6.143
					c0,0.379,0.109,0.675,0.341,0.875c0.224,0.203,0.504,0.307,0.835,0.307c0.32,0,0.599-0.104,0.832-0.307
					c0.234-0.2,0.35-0.496,0.35-0.875V14.465z"/>
			</g>
			<g>
				<path fill="#FFFFFF" d="M160.809,40.385h-1.624V25.938h1.624V40.385z"/>
				<path fill="#FFFFFF" d="M167.855,40.385h-1.623v-8.69c0-0.394-0.132-0.691-0.391-0.895c-0.26-0.201-0.551-0.306-0.884-0.306
					c-0.322,0-0.612,0.104-0.876,0.306c-0.268,0.203-0.397,0.501-0.397,0.895v8.69h-1.623V29.11h1.069l0.368,0.537
					c0.186-0.209,0.412-0.375,0.683-0.499c0.271-0.123,0.633-0.186,1.09-0.186c0.772,0,1.396,0.245,1.87,0.729
					c0.474,0.485,0.714,1.134,0.714,1.946V40.385z"/>
				<path fill="#FFFFFF" d="M174.696,37.54c0,0.406-0.058,0.798-0.173,1.163c-0.118,0.37-0.298,0.702-0.536,0.989
					c-0.241,0.287-0.54,0.517-0.906,0.692c-0.36,0.171-0.796,0.257-1.298,0.257c-0.422,0-0.8-0.066-1.148-0.204
					c-0.34-0.135-0.64-0.325-0.89-0.571c-0.255-0.244-0.449-0.54-0.583-0.885c-0.134-0.344-0.201-0.726-0.201-1.144v-0.774
					l1.624,0.35v0.425c0,0.357,0.109,0.643,0.333,0.858c0.218,0.217,0.507,0.324,0.865,0.324c0.835,0,1.254-0.394,1.254-1.183
					c0-0.298-0.036-0.543-0.111-0.749c-0.075-0.2-0.178-0.388-0.312-0.562c-0.198-0.22-0.406-0.425-0.627-0.606
					c-0.222-0.184-0.445-0.369-0.675-0.553c-0.227-0.186-0.451-0.377-0.677-0.573c-0.218-0.198-0.425-0.411-0.623-0.647
					c-0.271-0.319-0.49-0.673-0.656-1.068c-0.165-0.396-0.247-0.849-0.247-1.365c0-0.405,0.067-0.778,0.202-1.114
					c0.136-0.34,0.327-0.629,0.573-0.867c0.244-0.244,0.538-0.429,0.875-0.564c0.34-0.134,0.711-0.204,1.115-0.204
					c0.848,0,1.5,0.253,1.957,0.756c0.45,0.507,0.682,1.164,0.682,1.976v0.776l-1.587-0.369v-0.407c0-0.369-0.103-0.658-0.304-0.876
					c-0.203-0.216-0.47-0.324-0.804-0.324c-0.342,0-0.61,0.113-0.801,0.332c-0.191,0.224-0.287,0.525-0.287,0.906
					c0,0.433,0.137,0.815,0.405,1.163c0.271,0.343,0.598,0.676,0.979,0.996c0.383,0.319,0.77,0.649,1.168,0.986
					c0.403,0.34,0.733,0.718,0.99,1.134c0.134,0.219,0.239,0.463,0.312,0.727C174.662,37.003,174.696,37.273,174.696,37.54z"/>
				<path fill="#FFFFFF" d="M178.869,39.021c0.343,0,0.588-0.122,0.735-0.373l1.123,1.219c-0.207,0.246-0.476,0.437-0.811,0.571
					c-0.332,0.138-0.653,0.204-0.978,0.204c-0.848,0-1.48-0.237-1.898-0.711c-0.42-0.469-0.63-1.163-0.63-2.073v-7.307h-1.031v-1.44
					h1.031v-2.045l1.623-0.557v2.602h2.142v1.44h-2.142v7.307C178.034,38.629,178.312,39.021,178.869,39.021z"/>
				<path fill="#FFFFFF" d="M183.257,26.344c-0.014,0.283-0.093,0.523-0.239,0.722c-0.147,0.197-0.344,0.294-0.591,0.294
					s-0.449-0.097-0.609-0.294c-0.157-0.198-0.238-0.438-0.238-0.722c0-0.261,0.081-0.487,0.238-0.693
					c0.16-0.2,0.362-0.302,0.609-0.302s0.446,0.098,0.599,0.296C183.18,25.842,183.257,26.072,183.257,26.344z M183.201,40.385
					h-1.622V29.11h1.622V40.385z"/>
				<path fill="#FFFFFF" d="M187.646,39.021c0.344,0,0.591-0.122,0.737-0.373l1.124,1.219c-0.204,0.246-0.475,0.437-0.811,0.571
					c-0.331,0.138-0.654,0.204-0.975,0.204c-0.851,0-1.483-0.237-1.9-0.711c-0.421-0.469-0.628-1.163-0.628-2.073v-7.307h-1.032
					v-1.44h1.032v-2.045l1.625-0.557v2.602h2.138v1.44h-2.138v7.307C186.819,38.629,187.094,39.021,187.646,39.021z"/>
				<path fill="#FFFFFF" d="M195.766,40.385h-1.074l-0.367-0.535c-0.107,0.158-0.289,0.333-0.541,0.513
					c-0.252,0.187-0.641,0.279-1.171,0.279c-0.74,0-1.318-0.257-1.746-0.775c-0.423-0.514-0.636-1.251-0.636-2.214V29.11h1.623
					v8.728c0,0.382,0.109,0.676,0.322,0.879c0.219,0.2,0.491,0.304,0.822,0.304c0.318,0,0.591-0.096,0.812-0.287
					c0.221-0.193,0.331-0.489,0.331-0.896V29.11h1.625V40.385z"/>
				<path fill="#FFFFFF" d="M199.75,30.494c-0.332,0-0.61,0.104-0.839,0.306c-0.228,0.203-0.342,0.501-0.342,0.895v6.144
					c0,0.382,0.114,0.676,0.342,0.879c0.229,0.2,0.507,0.304,0.839,0.304c0.321,0,0.598-0.101,0.829-0.298
					c0.236-0.193,0.352-0.491,0.352-0.885v-0.186l1.622-0.533v0.719c0,0.479-0.073,0.896-0.22,1.246
					c-0.147,0.351-0.352,0.638-0.609,0.869c-0.258,0.223-0.56,0.399-0.893,0.516c-0.342,0.113-0.698,0.173-1.081,0.173
					c-0.393,0-0.765-0.062-1.106-0.183c-0.347-0.122-0.644-0.305-0.893-0.548c-0.254-0.236-0.454-0.529-0.591-0.874
					c-0.142-0.344-0.213-0.742-0.213-1.199v-6.144c0-0.503,0.071-0.93,0.213-1.274c0.137-0.343,0.337-0.623,0.591-0.835
					c0.249-0.216,0.546-0.373,0.893-0.475c0.342-0.097,0.714-0.147,1.106-0.147c0.383,0,0.739,0.051,1.081,0.147
					c0.333,0.102,0.635,0.259,0.893,0.482c0.258,0.219,0.462,0.503,0.609,0.85c0.146,0.343,0.22,0.761,0.22,1.252v0.481h-1.622
					v-0.481c0-0.394-0.115-0.691-0.352-0.895C200.348,30.599,200.071,30.494,199.75,30.494z"/>
				<path fill="#FFFFFF" d="M205.284,26.344c-0.01,0.283-0.092,0.523-0.238,0.722c-0.145,0.197-0.345,0.294-0.592,0.294
					c-0.246,0-0.448-0.097-0.606-0.294c-0.162-0.198-0.241-0.438-0.241-0.722c0-0.261,0.079-0.487,0.241-0.693
					c0.158-0.2,0.36-0.302,0.606-0.302c0.247,0,0.447,0.098,0.599,0.296C205.208,25.842,205.284,26.072,205.284,26.344z
					 M205.231,40.385h-1.625V29.11h1.625V40.385z"/>
				<path fill="#FFFFFF" d="M211.98,37.838c0,0.429-0.074,0.823-0.221,1.172c-0.15,0.35-0.349,0.645-0.609,0.885
					c-0.258,0.24-0.557,0.423-0.894,0.555c-0.341,0.131-0.698,0.192-1.081,0.192c-0.391,0-0.762-0.062-1.105-0.192
					c-0.347-0.132-0.644-0.314-0.894-0.555c-0.254-0.24-0.453-0.535-0.592-0.885c-0.143-0.349-0.212-0.743-0.212-1.172v-6.144
					c0-0.416,0.069-0.794,0.212-1.132c0.139-0.34,0.338-0.628,0.592-0.87c0.25-0.238,0.547-0.42,0.894-0.544
					c0.344-0.123,0.715-0.186,1.105-0.186c0.383,0,0.74,0.062,1.081,0.186c0.337,0.124,0.636,0.306,0.894,0.544
					c0.261,0.242,0.459,0.53,0.609,0.87c0.146,0.338,0.221,0.716,0.221,1.132V37.838z M210.357,31.694
					c0-0.394-0.115-0.691-0.35-0.895c-0.232-0.201-0.512-0.306-0.832-0.306c-0.331,0-0.612,0.104-0.838,0.306
					c-0.229,0.203-0.342,0.501-0.342,0.895v6.144c0,0.382,0.113,0.676,0.342,0.879c0.226,0.2,0.507,0.304,0.838,0.304
					c0.32,0,0.6-0.104,0.832-0.304c0.234-0.203,0.35-0.497,0.35-0.879V31.694z"/>
				<path fill="#FFFFFF" d="M218.957,40.385h-1.625v-8.69c0-0.394-0.132-0.691-0.389-0.895c-0.258-0.201-0.552-0.306-0.883-0.306
					c-0.323,0-0.614,0.104-0.879,0.306c-0.263,0.203-0.397,0.501-0.397,0.895v8.69h-1.62V29.11h1.069l0.368,0.537
					c0.183-0.209,0.41-0.375,0.682-0.499c0.268-0.123,0.634-0.186,1.089-0.186c0.775,0,1.399,0.245,1.873,0.729
					c0.474,0.485,0.712,1.134,0.712,1.946V40.385z"/>
				<path fill="#FFFFFF" d="M225.649,40.385h-1.068l-0.367-0.647c-0.137,0.249-0.344,0.458-0.631,0.636
					c-0.283,0.18-0.656,0.269-1.124,0.269c-0.293,0-0.59-0.055-0.885-0.167c-0.297-0.112-0.562-0.287-0.793-0.521
					c-0.233-0.242-0.42-0.548-0.564-0.916c-0.139-0.366-0.213-0.817-0.213-1.348c0-0.556,0.074-1.039,0.223-1.464
					c0.148-0.428,0.34-0.807,0.57-1.139c0.237-0.327,0.502-0.626,0.793-0.892c0.3-0.264,0.592-0.507,0.891-0.722
					c0.292-0.212,0.574-0.418,0.843-0.616c0.273-0.198,0.507-0.402,0.703-0.61v-0.553c0-0.354-0.077-0.645-0.23-0.868
					c-0.155-0.219-0.395-0.332-0.728-0.332c-0.627,0-1.026,0.254-1.199,0.758l-1.364-0.885c0.121-0.187,0.254-0.364,0.395-0.536
					c0.143-0.171,0.315-0.32,0.518-0.451c0.202-0.132,0.441-0.231,0.712-0.307c0.271-0.07,0.588-0.11,0.958-0.11
					c0.778,0,1.396,0.241,1.862,0.723c0.47,0.48,0.7,1.147,0.7,2.009V40.385z M224.063,34.354c-0.209,0.134-0.456,0.297-0.74,0.484
					c-0.281,0.193-0.551,0.422-0.809,0.683c-0.258,0.267-0.476,0.565-0.656,0.897c-0.177,0.332-0.269,0.704-0.269,1.122
					c0,0.471,0.105,0.832,0.318,1.089c0.208,0.262,0.507,0.392,0.903,0.392c0.429,0,0.743-0.148,0.95-0.447
					c0.203-0.291,0.302-0.638,0.302-1.033V34.354z"/>
				<path fill="#FFFFFF" d="M228.473,40.385h-1.623V25.883l1.623-0.534V40.385z"/>
			</g>
			<g>
				<path fill="#FFFFFF" d="M164.848,58.893h-1.644l-0.239-1.785h-2.049l-0.22,1.785h-1.734l2.214-14.444h1.496L164.848,58.893z
					 M162.781,55.593l-0.83-6.331l-0.853,6.331H162.781z"/>
				<path fill="#FFFFFF" d="M171.561,56.164c0,0.394-0.062,0.767-0.184,1.125c-0.125,0.354-0.298,0.671-0.526,0.951
					c-0.229,0.276-0.503,0.499-0.829,0.664c-0.327,0.166-0.7,0.251-1.117,0.251c-0.469,0-0.835-0.099-1.098-0.293
					c-0.265-0.186-0.457-0.354-0.582-0.503l-0.369,0.533h-1.07v-14.5l1.622-0.535v4.13c0.139-0.157,0.332-0.283,0.583-0.377
					c0.254-0.089,0.557-0.138,0.914-0.138c0.777,0,1.411,0.238,1.911,0.711c0.496,0.475,0.745,1.149,0.745,2.023V56.164z
					 M168.664,49.005c-0.332,0-0.624,0.102-0.875,0.307c-0.254,0.202-0.382,0.5-0.382,0.896v5.957c0,0.467,0.126,0.812,0.372,1.031
					c0.244,0.222,0.535,0.331,0.866,0.331c0.333,0,0.632-0.097,0.896-0.282c0.264-0.192,0.396-0.552,0.396-1.08v-5.957
					c0-0.406-0.129-0.711-0.385-0.908C169.293,49.103,168.995,49.005,168.664,49.005z"/>
				<path fill="#FFFFFF" d="M174.348,44.854c-0.011,0.285-0.092,0.521-0.242,0.718c-0.146,0.196-0.343,0.295-0.591,0.295
					c-0.244,0-0.446-0.099-0.609-0.295c-0.157-0.196-0.235-0.433-0.235-0.718c0-0.261,0.078-0.492,0.235-0.693
					c0.163-0.204,0.365-0.304,0.609-0.304c0.248,0,0.446,0.1,0.601,0.293C174.271,44.348,174.348,44.585,174.348,44.854z
					 M174.289,58.893h-1.619V47.621h1.619V58.893z"/>
				<path fill="#FFFFFF" d="M180.936,56.347c0,0.447-0.073,0.838-0.213,1.191c-0.145,0.351-0.336,0.642-0.583,0.886
					c-0.247,0.237-0.535,0.42-0.876,0.547c-0.34,0.12-0.699,0.185-1.078,0.185c-0.393,0-0.759-0.064-1.092-0.185
					c-0.331-0.127-0.62-0.31-0.864-0.547c-0.246-0.244-0.443-0.535-0.582-0.886c-0.143-0.354-0.21-0.744-0.21-1.191v-6.14
					c0-0.446,0.067-0.836,0.21-1.176c0.139-0.336,0.338-0.622,0.591-0.858c0.252-0.231,0.548-0.405,0.895-0.523
					c0.345-0.116,0.715-0.177,1.105-0.177c0.383,0,0.74,0.064,1.082,0.193c0.336,0.131,0.637,0.321,0.893,0.57
					c0.261,0.254,0.46,0.564,0.609,0.927c0.147,0.361,0.221,0.782,0.221,1.262c0,0.765-0.076,1.402-0.231,1.921
					c-0.151,0.514-0.388,0.97-0.708,1.363c-0.321,0.392-0.73,0.751-1.234,1.067c-0.505,0.324-1.111,0.66-1.812,1.019v0.552
					c0,0.386,0.103,0.678,0.308,0.88c0.202,0.201,0.475,0.3,0.821,0.3c0.315,0,0.581-0.099,0.793-0.3
					c0.211-0.202,0.312-0.494,0.312-0.88v-0.183l1.645-0.533V56.347z M179.42,50.52c0-0.568-0.115-0.963-0.352-1.183
					c-0.23-0.219-0.51-0.332-0.83-0.332c-0.33,0-0.611,0.102-0.84,0.307c-0.227,0.202-0.342,0.5-0.342,0.896v3.798
					c0.493-0.231,0.893-0.463,1.2-0.693c0.308-0.228,0.55-0.474,0.722-0.745c0.171-0.271,0.286-0.572,0.35-0.903
					C179.392,51.327,179.42,50.947,179.42,50.52z"/>
				<path fill="#FFFFFF" d="M184.975,47.473c0.43,0,0.747,0.104,0.957,0.312l-0.553,1.458c-0.085-0.097-0.25-0.147-0.497-0.147
					c-0.284,0-0.536,0.121-0.76,0.36c-0.22,0.242-0.33,0.544-0.33,0.913v8.523h-1.622V47.641h1.071l0.367,0.72
					c0.097-0.199,0.26-0.396,0.487-0.593C184.325,47.57,184.617,47.473,184.975,47.473z"/>
				<path fill="#FFFFFF" d="M189.86,57.526c0.347,0,0.594-0.118,0.74-0.368l1.127,1.22c-0.213,0.245-0.483,0.437-0.813,0.569
					c-0.331,0.141-0.66,0.208-0.98,0.208c-0.846,0-1.48-0.241-1.898-0.714c-0.417-0.469-0.627-1.164-0.627-2.076v-7.304h-1.033
					v-1.44h1.033v-2.049l1.625-0.552v2.601h2.141v1.44h-2.141v7.304C189.033,57.142,189.309,57.526,189.86,57.526z"/>
				<path fill="#FFFFFF" d="M197.759,56.347c0,0.433-0.075,0.818-0.221,1.17c-0.15,0.35-0.352,0.648-0.609,0.888
					c-0.26,0.237-0.556,0.424-0.896,0.555c-0.341,0.132-0.7,0.196-1.079,0.196c-0.394,0-0.764-0.064-1.105-0.196
					c-0.346-0.131-0.646-0.317-0.897-0.555c-0.249-0.239-0.447-0.538-0.591-0.888c-0.142-0.352-0.211-0.737-0.211-1.17v-6.14
					c0-0.422,0.069-0.8,0.211-1.138c0.144-0.336,0.342-0.627,0.591-0.865c0.252-0.243,0.552-0.426,0.897-0.545
					c0.342-0.122,0.712-0.187,1.105-0.187c0.379,0,0.738,0.064,1.079,0.187c0.34,0.119,0.636,0.302,0.896,0.545
					c0.258,0.238,0.459,0.529,0.609,0.865c0.146,0.338,0.221,0.716,0.221,1.138V56.347z M196.136,50.207
					c0-0.396-0.121-0.693-0.352-0.896c-0.236-0.205-0.513-0.307-0.83-0.307c-0.331,0-0.611,0.102-0.84,0.307
					c-0.229,0.202-0.345,0.5-0.345,0.896v6.14c0,0.386,0.116,0.678,0.345,0.88c0.229,0.201,0.509,0.3,0.84,0.3
					c0.317,0,0.594-0.099,0.83-0.3c0.23-0.202,0.352-0.494,0.352-0.88V50.207z"/>
			</g>
		</g>
		<polygon fill="#ADB9BA" points="34.492,9.023 26.488,0 1.415,0 1.415,9.023 1.415,15.184 1.415,41.648 76.381,41.648 
			76.381,9.023 		"/>
		<rect x="5.58" y="12.581" fill="#FFFFFF" width="67.417" height="20.389"/>
		<rect x="9.802" y="16.194" fill="#DBDBDA" width="4.744" height="1.794"/>
		<rect x="9.802" y="21.229" fill="#DBDBDA" width="4.744" height="1.794"/>
		<rect x="18.768" y="16.194" fill="#DBDBDA" width="49.978" height="1.794"/>
		<rect x="18.768" y="21.229" fill="#DBDBDA" width="49.978" height="1.794"/>
		<polygon fill="#FFFFFF" points="1.066,55.097 76.293,55.097 78.375,18.568 50.697,18.568 42.715,23.686 -0.843,23.686 		"/>
		<polygon fill="#94A4A5" points="1.242,58.221 76.466,58.221 78.55,21.692 50.872,21.692 42.888,26.812 -0.668,26.812 		"/>
	</g>
	<rect x="252.982" fill="#6ABDAB" width="1.69" height="59.155"/>
	<g>
		<g>
			<path fill="#EEEFF2" d="M316.876,8.246h1.222v6.793c0,4.237,1.318,4.139,3.246,4.139c1.634,0,3.15-0.031,3.15-4.139V8.246h1.238
				v6.793c0,5.326-2.392,5.359-4.389,5.359c-2.242,0-4.468,0.132-4.468-5.359V8.246z"/>
			<path fill="#EEEFF2" d="M328.043,8.246h1.254l6.43,9.793V8.246h1.22v12.068h-1.22l-6.448-9.793v9.793h-1.235V8.246z"/>
			<path fill="#EEEFF2" d="M339.258,8.246h1.219v12.068h-1.219V8.246z"/>
			<path fill="#EEEFF2" d="M343.545,8.246l3.529,10.124l3.693-10.124h1.338l-4.438,12.068h-1.221L342.21,8.246H343.545z"/>
			<path fill="#EEEFF2" d="M353.177,10.388c0-1.615,0.973-2.192,2.078-2.142l5.212,0.263v0.955h-5.212
				c-0.856,0-0.856,0.479-0.856,0.924v3.299l5.408,0.166v0.97l-5.408,0.167v3.298c0.016,0.875,0.544,0.859,1.022,0.859h5.046v0.938
				l-5.046,0.28c-1.088,0.065-2.244-0.214-2.244-2.078V10.388z"/>
			<path fill="#EEEFF2" d="M362.198,8.246h5.147c1.564,0,2.785,0.89,2.785,3.627c0,3.134-1.632,3.396-2.094,3.463l2.54,4.979h-1.319
				l-2.541-4.929l-3.296-0.23v5.159h-1.223V8.246z M367.346,14.065c0.759,0,1.549,0,1.549-2.192c0-2.159-0.825-2.392-1.549-2.392
				h-3.925v4.584H367.346z"/>
			<path fill="#EEEFF2" d="M372.062,11.082c0-2.393,1.42-2.937,3.266-2.937c0.874,0,3.497,0.313,4.123,0.396v0.989
				c-1.055-0.067-4.123-0.164-4.123-0.164c-1.154-0.049-2.043,0.064-2.043,1.715v1.088c0,1.501,0.689,1.616,1.681,1.616h2.34
				c2.195,0,2.574,1.483,2.574,2.837v1.12c0,2.342-1.697,2.705-3.331,2.705c-0.808,0-3.362-0.282-4.122-0.412v-0.988
				c0.656,0.065,2.589,0.179,4.122,0.179c0.678,0,2.11-0.032,2.11-1.483v-1.12c0-0.942-0.281-1.616-1.354-1.616h-2.308
				c-2.638,0-2.936-1.452-2.936-2.837V11.082z"/>
			<path fill="#EEEFF2" d="M381.939,8.246h1.222v12.068h-1.222V8.246z"/>
			<path fill="#EEEFF2" d="M385.471,8.246h4.483c3.715,0,4.29,3.609,4.29,6.083c0,2.737-1.104,5.985-4.29,5.985h-4.483V8.246z
				 M389.954,19.048c2.181,0,3.069-2.195,3.069-4.735c0-3.528-1.154-4.849-3.069-4.849h-3.264v9.584H389.954z"/>
			<path fill="#EEEFF2" d="M399.261,8.246h1.218l4.238,12.068h-1.452l-1.038-3.362h-4.815l-1.087,3.362h-1.501L399.261,8.246z
				 M401.798,15.73l-1.945-5.623l-1.994,5.623H401.798z"/>
			<path fill="#EEEFF2" d="M406.449,8.246h4.485c3.712,0,4.288,3.609,4.288,6.083c0,2.737-1.104,5.985-4.288,5.985h-4.485V8.246z
				 M410.935,19.048c2.177,0,3.067-2.195,3.067-4.735c0-3.528-1.154-4.849-3.067-4.849h-3.264v9.584H410.935z"/>
			<path fill="#EEEFF2" d="M316.299,28.037h8.378v1.22h-3.628v10.852h-1.221V29.257h-3.529V28.037z"/>
			<path fill="#EEEFF2" d="M326.079,30.181c0-1.616,0.973-2.191,2.078-2.144l5.211,0.266v0.954h-5.211
				c-0.857,0-0.857,0.479-0.857,0.924v3.299l5.407,0.164v0.976l-5.407,0.162v3.298c0.017,0.875,0.545,0.857,1.021,0.857h5.047v0.942
				l-5.047,0.278c-1.087,0.066-2.242-0.213-2.242-2.078V30.181z"/>
			<path fill="#EEEFF2" d="M339.042,27.906c0.857,0,2.868,0.196,4.024,0.412v0.972c-0.016,0-2.506-0.165-4.024-0.165
				c-2.061,0-2.804,0.941-2.804,4.948c0,2.704,0.613,4.914,2.804,4.914c1.732,0,4.024-0.115,4.024-0.115v0.972
				c-1.156,0.216-3.167,0.362-4.024,0.362c-3.05,0-4.024-2.62-4.024-6.165C335.018,30.181,335.761,27.906,339.042,27.906z"/>
			<path fill="#EEEFF2" d="M344.964,28.037h1.255l6.43,9.796v-9.796h1.218v12.071h-1.218l-6.451-9.796v9.796h-1.233V28.037z"/>
			<path fill="#EEEFF2" d="M360.614,27.957c2.853,0,4.651,0.542,4.651,6.2c0,5.325-1.683,6.017-4.651,6.017
				c-2.966,0-4.683-0.528-4.683-6.017C355.932,28.499,357.843,27.957,360.614,27.957z M360.614,38.954
				c2.572,0,3.43-0.691,3.43-4.797c0-4.933-1.185-4.981-3.43-4.981c-2.191,0-3.463,0.049-3.463,4.981
				C357.151,38.393,358.01,38.954,360.614,38.954z"/>
			<path fill="#EEEFF2" d="M367.329,28.037h1.22v9.993c0,0.874,0.545,0.858,1.022,0.858h5.047v1.22h-5.047
				c-1.088,0-2.242-0.215-2.242-2.078V28.037z"/>
			<path fill="#EEEFF2" d="M380.456,27.957c2.853,0,4.649,0.542,4.649,6.2c0,5.325-1.681,6.017-4.649,6.017
				c-2.97,0-4.684-0.528-4.684-6.017C375.772,28.499,377.687,27.957,380.456,27.957z M380.456,38.954c2.572,0,3.43-0.691,3.43-4.797
				c0-4.933-1.186-4.981-3.43-4.981c-2.191,0-3.464,0.049-3.464,4.981C376.992,38.393,377.852,38.954,380.456,38.954z
				 M381.653,24.772h1.563l-2.191,2.194h-1.138L381.653,24.772z"/>
			<path fill="#EEEFF2" d="M390.286,27.906c0.857,0,3.036,0.23,4.189,0.444v0.975c-0.098,0-2.557-0.2-4.189-0.2
				c-2.177,0-2.638,1.584-2.638,4.916c0,3.659,0.677,4.913,2.703,4.946c1.254,0.017,3.168-0.758,3.168-0.758v-3.3h-2.771v-0.823
				c0.661-0.183,1.533-0.412,2.868-0.412c0.346,0,0.727,0.017,1.122,0.048v6.366h-0.925l-0.262-0.809
				c-0.629,0.346-1.716,0.891-3.201,0.891c-3.412,0.033-3.923-2.688-3.923-6.184C386.429,30.709,387.006,27.906,390.286,27.906z"/>
			<path fill="#EEEFF2" d="M396.966,28.037h1.222v12.071h-1.222V28.037z"/>
			<path fill="#EEEFF2" d="M404.108,27.906c0.856,0,2.869,0.196,4.022,0.412v0.972c-0.016,0-2.506-0.165-4.022-0.165
				c-2.063,0-2.804,0.941-2.804,4.948c0,2.704,0.61,4.914,2.804,4.914c1.73,0,4.022-0.115,4.022-0.115v0.972
				c-1.153,0.216-3.166,0.362-4.022,0.362c-3.051,0-4.025-2.62-4.025-6.165C400.083,30.181,400.828,27.906,404.108,27.906z"/>
			<path fill="#EEEFF2" d="M413.888,28.037h1.22l4.237,12.071h-1.448l-1.039-3.364h-4.814l-1.089,3.364h-1.501L413.888,28.037z
				 M416.427,35.524l-1.944-5.624l-1.995,5.624H416.427z"/>
			<path fill="#EEEFF2" d="M316.876,47.83h1.255l6.43,9.794V47.83h1.22v12.071h-1.22l-6.448-9.797v9.797h-1.236V47.83z"/>
			<path fill="#EEEFF2" d="M331.95,47.83h1.22l4.239,12.071h-1.452l-1.039-3.366h-4.814l-1.089,3.366h-1.5L331.95,47.83z
				 M334.487,55.315l-1.943-5.624l-1.995,5.624H334.487z"/>
			<path fill="#EEEFF2" d="M342.095,47.697c0.855,0,2.869,0.198,4.023,0.411v0.975c-0.019,0-2.506-0.165-4.023-0.165
				c-2.063,0-2.805,0.938-2.805,4.948c0,2.701,0.611,4.911,2.805,4.911c1.733,0,4.023-0.113,4.023-0.113v0.972
				C344.964,59.851,342.95,60,342.095,60c-3.051,0-4.024-2.621-4.024-6.17C338.07,49.974,338.812,47.697,342.095,47.697z"/>
			<path fill="#EEEFF2" d="M348.015,47.83h1.222v12.071h-1.222V47.83z"/>
			<path fill="#EEEFF2" d="M355.981,47.746c2.852,0,4.648,0.545,4.648,6.201c0,5.326-1.683,6.021-4.648,6.021
				c-2.97,0-4.682-0.53-4.682-6.021C351.3,48.291,353.212,47.746,355.981,47.746z M355.981,58.747c2.57,0,3.429-0.693,3.429-4.8
				c0-4.931-1.187-4.979-3.429-4.979c-2.193,0-3.464,0.049-3.464,4.979C352.518,58.185,353.376,58.747,355.981,58.747z"/>
			<path fill="#EEEFF2" d="M362.693,47.83h1.251l6.435,9.794V47.83h1.221v12.071h-1.221l-6.446-9.797v9.797h-1.239V47.83z"/>
			<path fill="#EEEFF2" d="M377.77,47.83h1.22l4.237,12.071h-1.448l-1.043-3.366h-4.812l-1.088,3.366h-1.502L377.77,47.83z
				 M380.309,55.315l-1.948-5.624l-1.995,5.624H380.309z"/>
			<path fill="#EEEFF2" d="M384.96,47.83h1.22v9.993c0,0.873,0.545,0.856,1.023,0.856h5.043v1.222h-5.043
				c-1.091,0-2.243-0.215-2.243-2.078V47.83z"/>
		</g>
		<g>
			<g>
				<path fill="#EEEFF2" d="M291.626,52.665V8.146h-3.702v10.458c-4.285-1.521-7.41-5.657-7.41-10.458h-7.446
					c0,8.937,6.387,16.484,14.856,18.228v0.307h-14.807v7.448h14.807v0.309c-8.47,1.741-14.91,9.24-14.91,18.229h7.451
					c0-4.85,3.174-8.988,7.459-10.518v10.518H291.626z"/>
				<path fill="#D9DBDE" d="M291.626,52.665V8.146h3.703v10.458c4.286-1.521,7.409-5.657,7.409-10.458h7.448
					c0,8.937-6.39,16.484-14.857,18.228v0.307h14.809v7.448h-14.809v0.309c8.468,1.741,14.908,9.24,14.908,18.229h-7.448
					c0-4.85-3.174-8.988-7.46-10.518v10.518H291.626z"/>
			</g>
			<g>
				<path fill="#D9DBDE" d="M273.158,55.014h2.109c0.64,0,1.141,0.365,1.141,1.487c0,1.282-0.67,1.391-0.858,1.418l1.041,2.04
					h-0.541l-1.039-2.02l-1.352-0.095v2.114h-0.501V55.014z M275.268,57.398c0.31,0,0.634,0,0.634-0.897
					c0-0.886-0.338-0.98-0.634-0.98h-1.608v1.878H275.268z"/>
				<path fill="#D9DBDE" d="M277.303,55.893c0-0.662,0.398-0.899,0.85-0.879l2.135,0.109v0.391h-2.135
					c-0.351,0-0.351,0.195-0.351,0.379v1.351l2.215,0.067v0.399l-2.215,0.067v1.352c0.007,0.357,0.223,0.35,0.418,0.35h2.067v0.386
					l-2.067,0.114c-0.445,0.028-0.917-0.088-0.917-0.85V55.893z"/>
				<path fill="#D9DBDE" d="M282.613,54.961c0.352,0,1.176,0.082,1.648,0.168v0.399c-0.008,0-1.027-0.068-1.648-0.068
					c-0.845,0-1.149,0.386-1.149,2.027c0,1.107,0.251,2.012,1.149,2.012c0.709,0,1.648-0.047,1.648-0.047v0.397
					c-0.473,0.089-1.297,0.15-1.648,0.15c-1.25,0-1.649-1.075-1.649-2.527C280.964,55.893,281.268,54.961,282.613,54.961z"/>
				<path fill="#D9DBDE" d="M284.803,55.014h3.432v0.5h-1.486v4.445h-0.5v-4.445h-1.445V55.014z"/>
				<path fill="#D9DBDE" d="M290.628,54.98c1.169,0,1.904,0.223,1.904,2.54c0,2.182-0.688,2.466-1.904,2.466
					s-1.919-0.218-1.919-2.466C288.709,55.203,289.493,54.98,290.628,54.98z M290.628,59.486c1.053,0,1.404-0.284,1.404-1.966
					c0-2.021-0.486-2.039-1.404-2.039c-0.898,0-1.42,0.019-1.42,2.039C289.208,59.257,289.559,59.486,290.628,59.486z"/>
				<path fill="#D9DBDE" d="M293.244,55.014h2.106c0.643,0,1.142,0.365,1.142,1.487c0,1.282-0.668,1.391-0.857,1.418l1.04,2.04
					h-0.541l-1.04-2.02l-1.35-0.095v2.114h-0.5V55.014z M295.351,57.398c0.312,0,0.636,0,0.636-0.897c0-0.886-0.338-0.98-0.636-0.98
					h-1.606v1.878H295.351z"/>
				<path fill="#D9DBDE" d="M298.967,55.014h0.5l1.736,4.945h-0.595l-0.425-1.379h-1.974l-0.445,1.379h-0.615L298.967,55.014z
					 M300.009,58.08l-0.798-2.302l-0.818,2.302H300.009z"/>
				<path fill="#D9DBDE" d="M301.915,55.014h1.837c1.52,0,1.756,1.48,1.756,2.493c0,1.121-0.453,2.452-1.756,2.452h-1.837V55.014z
					 M303.752,59.438c0.892,0,1.256-0.898,1.256-1.938c0-1.444-0.472-1.986-1.256-1.986h-1.338v3.925H303.752z"/>
				<path fill="#D9DBDE" d="M308.036,54.98c1.168,0,1.905,0.223,1.905,2.54c0,2.182-0.689,2.466-1.905,2.466
					c-1.215,0-1.918-0.218-1.918-2.466C306.118,55.203,306.9,54.98,308.036,54.98z M308.036,59.486c1.054,0,1.405-0.284,1.405-1.966
					c0-2.021-0.486-2.039-1.405-2.039c-0.898,0-1.419,0.019-1.419,2.039C306.617,59.257,306.968,59.486,308.036,59.486z"/>
			</g>
		</g>
	</g>
</g>
</svg>
